<?xml version="1.0" encoding="UTF-8" standalone="no"?><svg xmlns="http://www.w3.org/2000/svg" xmlns:xlink="http://www.w3.org/1999/xlink" contentScriptType="application/ecmascript" contentStyleType="text/css" height="122px" preserveAspectRatio="none" style="width:529px;height:122px;background:#FFFFFF;" version="1.1" viewBox="0 0 529 122" width="529px" zoomAndPan="magnify"><defs><filter height="300%" id="f1om0v6nvsmb4g" width="300%" x="-1" y="-1"><feGaussianBlur result="blurOut" stdDeviation="2.0"/><feColorMatrix in="blurOut" result="blurOut2" type="matrix" values="0 0 0 0 0 0 0 0 0 0 0 0 0 0 0 0 0 0 .4 0"/><feOffset dx="4.0" dy="4.0" in="blurOut2" result="blurOut3"/><feBlend in="SourceGraphic" in2="blurOut3" mode="normal"/></filter></defs><g><!--MD5=[b5c10f0f417b8a73a0111d928fe29a37]
class sdm.gcms.database.objects.edit.EditObject--><a href="EditObject.html" target="_top" title="EditObject.html" xlink:actuate="onRequest" xlink:href="EditObject.html" xlink:show="new" xlink:title="EditObject.html" xlink:type="simple"><rect codeLine="5" fill="#FEFECE" filter="url(#f1om0v6nvsmb4g)" height="89.6953" id="sdm.gcms.database.objects.edit.EditObject" style="stroke:#A80036;stroke-width:1.5;" width="508" x="7" y="7"/><ellipse cx="182.25" cy="27.0938" fill="#ADD1B2" rx="11" ry="11" style="stroke:#A80036;stroke-width:1.0;"/><path d="M185.0156,22.9688 Q185.1719,22.75 185.3594,22.6406 Q185.5469,22.5313 185.7656,22.5313 Q186.1406,22.5313 186.375,22.7969 Q186.6094,23.0469 186.6094,23.6563 L186.6094,25.1094 Q186.6094,25.7188 186.375,25.9844 Q186.1406,26.25 185.7656,26.25 Q185.4219,26.25 185.2188,26.0469 Q185.0156,25.8594 184.9063,25.3438 Q184.8594,24.9844 184.6719,24.7969 Q184.3438,24.4219 183.7344,24.2031 Q183.125,23.9844 182.5,23.9844 Q181.7344,23.9844 181.0938,24.3125 Q180.4688,24.6406 179.9688,25.3906 Q179.4844,26.1406 179.4844,27.1719 L179.4844,28.2656 Q179.4844,29.5 180.375,30.3281 Q181.2656,31.1406 182.8594,31.1406 Q183.7969,31.1406 184.4531,30.8906 Q184.8438,30.7344 185.2656,30.2969 Q185.5313,30.0313 185.6719,29.9531 Q185.8281,29.875 186.0313,29.875 Q186.3594,29.875 186.6094,30.1406 Q186.875,30.3906 186.875,30.7344 Q186.875,31.0781 186.5313,31.4844 Q186.0313,32.0625 185.2344,32.3906 Q184.1563,32.8438 182.8594,32.8438 Q181.3438,32.8438 180.1406,32.2188 Q179.1563,31.7188 178.4688,30.6563 Q177.7813,29.5781 177.7813,28.2969 L177.7813,27.1406 Q177.7813,25.8125 178.3906,24.6719 Q179.0156,23.5156 180.1094,22.9063 Q181.2031,22.2813 182.4375,22.2813 Q183.1719,22.2813 183.8125,22.4531 Q184.4688,22.6094 185.0156,22.9688 Z " fill="#000000"/><text fill="#000000" font-family="sans-serif" font-size="14" lengthAdjust="spacing" textLength="65" x="244.75" y="26.5332">EditObject</text><text fill="#000000" font-family="sans-serif" font-size="10" lengthAdjust="spacing" textLength="149" x="202.75" y="39.9902">sdm.gcms.database.objects.edit</text><line style="stroke:#A80036;stroke-width:1.5;" x1="8" x2="514" y1="47.1875" y2="47.1875"/><ellipse cx="18" cy="58.1875" fill="#84BE84" rx="3" ry="3" style="stroke:#038048;stroke-width:1.0;"/><text fill="#000000" font-family="sans-serif" font-size="11" lengthAdjust="spacing" text-decoration="underline" textLength="430" x="27" y="62.6064">editObject(HashMap&lt;String, String&gt;, String, MongoConfigurations, Actions): StringBuilder</text><ellipse cx="18" cy="72.0234" fill="#84BE84" rx="3" ry="3" style="stroke:#038048;stroke-width:1.0;"/><text fill="#000000" font-family="sans-serif" font-size="11" lengthAdjust="spacing" text-decoration="underline" textLength="482" x="27" y="76.4424">editObject(HashMap&lt;String, Object&gt;, MongoConfigurations, String, SerializableClass, Actions): void</text><ellipse cx="18" cy="85.8594" fill="#84BE84" rx="3" ry="3" style="stroke:#038048;stroke-width:1.0;"/><text fill="#000000" font-family="sans-serif" font-size="11" lengthAdjust="spacing" text-decoration="underline" textLength="408" x="27" y="90.2783">addObject(Document, MongoConfigurations, String, SerializableClass, Actions): void</text></a><text fill="#888888" font-family="sans-serif" font-size="10" lengthAdjust="spacing" textLength="179" x="171.5" y="114.0762">UMLDoclet 2.0.14, PlantUML 1.2021.9</text><!--MD5=[746028a50e4e3751c4a0c0bbc5cc5387]
@startuml
    set namespaceSeparator none
    hide empty fields
    hide empty methods

    class "<size:14>EditObject\n<size:10>sdm.gcms.database.objects.edit" as sdm.gcms.database.objects.edit.EditObject [[EditObject.html]] {
        {static} +editObject(HashMap<String, String>, String, MongoConfigurations, Actions): StringBuilder
        {static} +editObject(HashMap<String, Object>, MongoConfigurations, String, SerializableClass, Actions): void
        {static} +addObject(Document, MongoConfigurations, String, SerializableClass, Actions): void
    }

    center footer UMLDoclet 2.0.14, PlantUML 1.2021.9
@enduml

PlantUML version 1.2021.9(Sun Jul 25 12:13:56 CEST 2021)
(APACHE source distribution)
Java Runtime: Java(TM) SE Runtime Environment
JVM: Java HotSpot(TM) 64-Bit Server VM
Default Encoding: Cp1252
Language: nl
Country: BE
--></g></svg>