<?xml version="1.0" encoding="UTF-8" standalone="no"?><svg xmlns="http://www.w3.org/2000/svg" xmlns:xlink="http://www.w3.org/1999/xlink" contentScriptType="application/ecmascript" contentStyleType="text/css" height="136px" preserveAspectRatio="none" style="width:401px;height:136px;background:#FFFFFF;" version="1.1" viewBox="0 0 401 136" width="401px" zoomAndPan="magnify"><defs><filter height="300%" id="f3mlw6pakvmwa" width="300%" x="-1" y="-1"><feGaussianBlur result="blurOut" stdDeviation="2.0"/><feColorMatrix in="blurOut" result="blurOut2" type="matrix" values="0 0 0 0 0 0 0 0 0 0 0 0 0 0 0 0 0 0 .4 0"/><feOffset dx="4.0" dy="4.0" in="blurOut2" result="blurOut3"/><feBlend in="SourceGraphic" in2="blurOut3" mode="normal"/></filter></defs><g><!--MD5=[0f4648fc0bdcda050ea0e51660ceb452]
class sdm.gcms.credentials.Cryptography--><a href="Cryptography.html" target="_top" title="Cryptography.html" xlink:actuate="onRequest" xlink:href="Cryptography.html" xlink:show="new" xlink:title="Cryptography.html" xlink:type="simple"><rect codeLine="5" fill="#FEFECE" filter="url(#f3mlw6pakvmwa)" height="103.5313" id="sdm.gcms.credentials.Cryptography" style="stroke:#A80036;stroke-width:1.5;" width="380" x="7" y="7"/><ellipse cx="143.25" cy="27.0938" fill="#ADD1B2" rx="11" ry="11" style="stroke:#A80036;stroke-width:1.0;"/><path d="M146.0156,22.9688 Q146.1719,22.75 146.3594,22.6406 Q146.5469,22.5313 146.7656,22.5313 Q147.1406,22.5313 147.375,22.7969 Q147.6094,23.0469 147.6094,23.6563 L147.6094,25.1094 Q147.6094,25.7188 147.375,25.9844 Q147.1406,26.25 146.7656,26.25 Q146.4219,26.25 146.2188,26.0469 Q146.0156,25.8594 145.9063,25.3438 Q145.8594,24.9844 145.6719,24.7969 Q145.3438,24.4219 144.7344,24.2031 Q144.125,23.9844 143.5,23.9844 Q142.7344,23.9844 142.0938,24.3125 Q141.4688,24.6406 140.9688,25.3906 Q140.4844,26.1406 140.4844,27.1719 L140.4844,28.2656 Q140.4844,29.5 141.375,30.3281 Q142.2656,31.1406 143.8594,31.1406 Q144.7969,31.1406 145.4531,30.8906 Q145.8438,30.7344 146.2656,30.2969 Q146.5313,30.0313 146.6719,29.9531 Q146.8281,29.875 147.0313,29.875 Q147.3594,29.875 147.6094,30.1406 Q147.875,30.3906 147.875,30.7344 Q147.875,31.0781 147.5313,31.4844 Q147.0313,32.0625 146.2344,32.3906 Q145.1563,32.8438 143.8594,32.8438 Q142.3438,32.8438 141.1406,32.2188 Q140.1563,31.7188 139.4688,30.6563 Q138.7813,29.5781 138.7813,28.2969 L138.7813,27.1406 Q138.7813,25.8125 139.3906,24.6719 Q140.0156,23.5156 141.1094,22.9063 Q142.2031,22.2813 143.4375,22.2813 Q144.1719,22.2813 144.8125,22.4531 Q145.4688,22.6094 146.0156,22.9688 Z " fill="#000000"/><text fill="#000000" font-family="sans-serif" font-size="14" lengthAdjust="spacing" textLength="86" x="170.25" y="26.5332">Cryptography</text><text fill="#000000" font-family="sans-serif" font-size="10" lengthAdjust="spacing" textLength="99" x="163.75" y="39.9902">sdm.gcms.credentials</text><line style="stroke:#A80036;stroke-width:1.5;" x1="8" x2="386" y1="47.1875" y2="47.1875"/><ellipse cx="18" cy="58.1875" fill="#84BE84" rx="3" ry="3" style="stroke:#038048;stroke-width:1.0;"/><text fill="#000000" font-family="sans-serif" font-size="11" lengthAdjust="spacing" textLength="86" x="27" y="62.6064">Cryptography(int)</text><ellipse cx="18" cy="72.0234" fill="#84BE84" rx="3" ry="3" style="stroke:#038048;stroke-width:1.0;"/><text fill="#000000" font-family="sans-serif" font-size="11" lengthAdjust="spacing" text-decoration="underline" textLength="94" x="27" y="76.4424">hash(String): String</text><ellipse cx="18" cy="85.8594" fill="#84BE84" rx="3" ry="3" style="stroke:#038048;stroke-width:1.0;"/><text fill="#000000" font-family="sans-serif" font-size="11" lengthAdjust="spacing" text-decoration="underline" textLength="167" x="27" y="90.2783">verifyHash(String, String): boolean</text><ellipse cx="18" cy="99.6953" fill="#84BE84" rx="3" ry="3" style="stroke:#038048;stroke-width:1.0;"/><text fill="#000000" font-family="sans-serif" font-size="11" lengthAdjust="spacing" textLength="354" x="27" y="104.1143">verifyAndUpdateHash(String, String, Function&lt;String, Boolean&gt;): boolean</text></a><text fill="#888888" font-family="sans-serif" font-size="10" lengthAdjust="spacing" textLength="179" x="107.5" y="127.9121">UMLDoclet 2.0.14, PlantUML 1.2021.9</text><!--MD5=[d986f893e6c25952269eeae5153e992f]
@startuml
    set namespaceSeparator none
    hide empty fields
    hide empty methods

    class "<size:14>Cryptography\n<size:10>sdm.gcms.credentials" as sdm.gcms.credentials.Cryptography [[Cryptography.html]] {
        +Cryptography(int)
        {static} +hash(String): String
        {static} +verifyHash(String, String): boolean
        +verifyAndUpdateHash(String, String, Function<String, Boolean>): boolean
    }

    center footer UMLDoclet 2.0.14, PlantUML 1.2021.9
@enduml

PlantUML version 1.2021.9(Sun Jul 25 12:13:56 CEST 2021)
(APACHE source distribution)
Java Runtime: Java(TM) SE Runtime Environment
JVM: Java HotSpot(TM) 64-Bit Server VM
Default Encoding: Cp1252
Language: nl
Country: BE
--></g></svg>