<?xml version="1.0" encoding="UTF-8" standalone="no"?><svg xmlns="http://www.w3.org/2000/svg" xmlns:xlink="http://www.w3.org/1999/xlink" contentScriptType="application/ecmascript" contentStyleType="text/css" height="407px" preserveAspectRatio="none" style="width:340px;height:407px;background:#FFFFFF;" version="1.1" viewBox="0 0 340 407" width="340px" zoomAndPan="magnify"><defs><filter height="300%" id="fvdk0t0ij7w8z" width="300%" x="-1" y="-1"><feGaussianBlur result="blurOut" stdDeviation="2.0"/><feColorMatrix in="blurOut" result="blurOut2" type="matrix" values="0 0 0 0 0 0 0 0 0 0 0 0 0 0 0 0 0 0 .4 0"/><feOffset dx="4.0" dy="4.0" in="blurOut2" result="blurOut3"/><feBlend in="SourceGraphic" in2="blurOut3" mode="normal"/></filter></defs><g><!--MD5=[c1980175291b01c1f446cbff9deae069]
class sdm.gcms.GsonObjects.Core.ChronJob--><a href="ChronJob.html" target="_top" title="ChronJob.html" xlink:actuate="onRequest" xlink:href="ChronJob.html" xlink:show="new" xlink:title="ChronJob.html" xlink:type="simple"><rect codeLine="5" fill="#FEFECE" filter="url(#fvdk0t0ij7w8z)" height="374.4141" id="sdm.gcms.GsonObjects.Core.ChronJob" style="stroke:#A80036;stroke-width:1.5;" width="319" x="7" y="7"/><ellipse cx="95.25" cy="27.0938" fill="#ADD1B2" rx="11" ry="11" style="stroke:#A80036;stroke-width:1.0;"/><path d="M98.0156,22.9688 Q98.1719,22.75 98.3594,22.6406 Q98.5469,22.5313 98.7656,22.5313 Q99.1406,22.5313 99.375,22.7969 Q99.6094,23.0469 99.6094,23.6563 L99.6094,25.1094 Q99.6094,25.7188 99.375,25.9844 Q99.1406,26.25 98.7656,26.25 Q98.4219,26.25 98.2188,26.0469 Q98.0156,25.8594 97.9063,25.3438 Q97.8594,24.9844 97.6719,24.7969 Q97.3438,24.4219 96.7344,24.2031 Q96.125,23.9844 95.5,23.9844 Q94.7344,23.9844 94.0938,24.3125 Q93.4688,24.6406 92.9688,25.3906 Q92.4844,26.1406 92.4844,27.1719 L92.4844,28.2656 Q92.4844,29.5 93.375,30.3281 Q94.2656,31.1406 95.8594,31.1406 Q96.7969,31.1406 97.4531,30.8906 Q97.8438,30.7344 98.2656,30.2969 Q98.5313,30.0313 98.6719,29.9531 Q98.8281,29.875 99.0313,29.875 Q99.3594,29.875 99.6094,30.1406 Q99.875,30.3906 99.875,30.7344 Q99.875,31.0781 99.5313,31.4844 Q99.0313,32.0625 98.2344,32.3906 Q97.1563,32.8438 95.8594,32.8438 Q94.3438,32.8438 93.1406,32.2188 Q92.1563,31.7188 91.4688,30.6563 Q90.7813,29.5781 90.7813,28.2969 L90.7813,27.1406 Q90.7813,25.8125 91.3906,24.6719 Q92.0156,23.5156 93.1094,22.9063 Q94.2031,22.2813 95.4375,22.2813 Q96.1719,22.2813 96.8125,22.4531 Q97.4688,22.6094 98.0156,22.9688 Z " fill="#000000"/><text fill="#000000" font-family="sans-serif" font-size="14" lengthAdjust="spacing" textLength="62" x="151.75" y="26.5332">ChronJob</text><text fill="#000000" font-family="sans-serif" font-size="10" lengthAdjust="spacing" textLength="134" x="115.75" y="39.9902">sdm.gcms.GsonObjects.Core</text><line style="stroke:#A80036;stroke-width:1.5;" x1="8" x2="325" y1="47.1875" y2="47.1875"/><ellipse cx="18" cy="58.1875" rx="3" ry="3" style="stroke:#038048;stroke-width:1.0;fill:none;"/><text fill="#000000" font-family="sans-serif" font-size="11" lengthAdjust="spacing" textLength="84" x="27" y="62.6064">chronjobid: String</text><ellipse cx="18" cy="72.0234" rx="3" ry="3" style="stroke:#038048;stroke-width:1.0;fill:none;"/><text fill="#000000" font-family="sans-serif" font-size="11" lengthAdjust="spacing" textLength="126" x="27" y="76.4424">commmands: List&lt;String&gt;</text><ellipse cx="18" cy="85.8594" rx="3" ry="3" style="stroke:#038048;stroke-width:1.0;fill:none;"/><text fill="#000000" font-family="sans-serif" font-size="11" lengthAdjust="spacing" textLength="90" x="27" y="90.2783">parameters: String</text><ellipse cx="18" cy="99.6953" rx="3" ry="3" style="stroke:#038048;stroke-width:1.0;fill:none;"/><text fill="#000000" font-family="sans-serif" font-size="11" lengthAdjust="spacing" textLength="69" x="27" y="104.1143">interval: String</text><ellipse cx="18" cy="113.5313" rx="3" ry="3" style="stroke:#038048;stroke-width:1.0;fill:none;"/><text fill="#000000" font-family="sans-serif" font-size="11" lengthAdjust="spacing" textLength="48" x="27" y="117.9502">start: long</text><ellipse cx="18" cy="127.3672" rx="3" ry="3" style="stroke:#038048;stroke-width:1.0;fill:none;"/><text fill="#000000" font-family="sans-serif" font-size="11" lengthAdjust="spacing" textLength="43" x="27" y="131.7861">last: long</text><ellipse cx="18" cy="141.2031" rx="3" ry="3" style="stroke:#038048;stroke-width:1.0;fill:none;"/><text fill="#000000" font-family="sans-serif" font-size="11" lengthAdjust="spacing" textLength="47" x="27" y="145.6221">stop: long</text><line style="stroke:#A80036;stroke-width:1.5;" x1="8" x2="325" y1="152.0391" y2="152.0391"/><ellipse cx="18" cy="163.0391" fill="#84BE84" rx="3" ry="3" style="stroke:#038048;stroke-width:1.0;"/><text fill="#000000" font-family="sans-serif" font-size="11" lengthAdjust="spacing" textLength="56" x="27" y="167.458">ChronJob()</text><ellipse cx="18" cy="176.875" fill="#84BE84" rx="3" ry="3" style="stroke:#038048;stroke-width:1.0;"/><text fill="#000000" font-family="sans-serif" font-size="11" lengthAdjust="spacing" textLength="293" x="27" y="181.2939">ChronJob(String, List&lt;String&gt;, String, String, long, long, long)</text><ellipse cx="18" cy="190.7109" fill="#84BE84" rx="3" ry="3" style="stroke:#038048;stroke-width:1.0;"/><text fill="#000000" font-family="sans-serif" font-size="11" lengthAdjust="spacing" textLength="114" x="27" y="195.1299">getParameters(): String</text><ellipse cx="18" cy="204.5469" fill="#84BE84" rx="3" ry="3" style="stroke:#038048;stroke-width:1.0;"/><text fill="#000000" font-family="sans-serif" font-size="11" lengthAdjust="spacing" textLength="134" x="27" y="208.9658">setParameters(String): void</text><ellipse cx="18" cy="218.3828" fill="#84BE84" rx="3" ry="3" style="stroke:#038048;stroke-width:1.0;"/><text fill="#000000" font-family="sans-serif" font-size="11" lengthAdjust="spacing" textLength="70" x="27" y="222.8018">getLast(): long</text><ellipse cx="18" cy="232.2188" fill="#84BE84" rx="3" ry="3" style="stroke:#038048;stroke-width:1.0;"/><text fill="#000000" font-family="sans-serif" font-size="11" lengthAdjust="spacing" textLength="90" x="27" y="236.6377">setLast(long): void</text><ellipse cx="18" cy="246.0547" fill="#84BE84" rx="3" ry="3" style="stroke:#038048;stroke-width:1.0;"/><text fill="#000000" font-family="sans-serif" font-size="11" lengthAdjust="spacing" textLength="151" x="27" y="250.4736">getCommmands(): List&lt;String&gt;</text><ellipse cx="18" cy="259.8906" fill="#84BE84" rx="3" ry="3" style="stroke:#038048;stroke-width:1.0;"/><text fill="#000000" font-family="sans-serif" font-size="11" lengthAdjust="spacing" textLength="171" x="27" y="264.3096">setCommmands(List&lt;String&gt;): void</text><ellipse cx="18" cy="273.7266" fill="#84BE84" rx="3" ry="3" style="stroke:#038048;stroke-width:1.0;"/><text fill="#000000" font-family="sans-serif" font-size="11" lengthAdjust="spacing" textLength="109" x="27" y="278.1455">getChronjobid(): String</text><ellipse cx="18" cy="287.5625" fill="#84BE84" rx="3" ry="3" style="stroke:#038048;stroke-width:1.0;"/><text fill="#000000" font-family="sans-serif" font-size="11" lengthAdjust="spacing" textLength="129" x="27" y="291.9814">setChronjobid(String): void</text><ellipse cx="18" cy="301.3984" fill="#84BE84" rx="3" ry="3" style="stroke:#038048;stroke-width:1.0;"/><text fill="#000000" font-family="sans-serif" font-size="11" lengthAdjust="spacing" textLength="93" x="27" y="305.8174">getInterval(): String</text><ellipse cx="18" cy="315.2344" fill="#84BE84" rx="3" ry="3" style="stroke:#038048;stroke-width:1.0;"/><text fill="#000000" font-family="sans-serif" font-size="11" lengthAdjust="spacing" textLength="113" x="27" y="319.6533">setInterval(String): void</text><ellipse cx="18" cy="329.0703" fill="#84BE84" rx="3" ry="3" style="stroke:#038048;stroke-width:1.0;"/><text fill="#000000" font-family="sans-serif" font-size="11" lengthAdjust="spacing" textLength="72" x="27" y="333.4893">getStart(): long</text><ellipse cx="18" cy="342.9063" fill="#84BE84" rx="3" ry="3" style="stroke:#038048;stroke-width:1.0;"/><text fill="#000000" font-family="sans-serif" font-size="11" lengthAdjust="spacing" textLength="92" x="27" y="347.3252">setStart(long): void</text><ellipse cx="18" cy="356.7422" fill="#84BE84" rx="3" ry="3" style="stroke:#038048;stroke-width:1.0;"/><text fill="#000000" font-family="sans-serif" font-size="11" lengthAdjust="spacing" textLength="71" x="27" y="361.1611">getStop(): long</text><ellipse cx="18" cy="370.5781" fill="#84BE84" rx="3" ry="3" style="stroke:#038048;stroke-width:1.0;"/><text fill="#000000" font-family="sans-serif" font-size="11" lengthAdjust="spacing" textLength="91" x="27" y="374.9971">setStop(long): void</text></a><text fill="#888888" font-family="sans-serif" font-size="10" lengthAdjust="spacing" textLength="179" x="77" y="398.7949">UMLDoclet 2.0.14, PlantUML 1.2021.9</text><!--MD5=[7121b7860c183e9f7ed649d0157248d8]
@startuml
    set namespaceSeparator none
    hide empty fields
    hide empty methods

    class "<size:14>ChronJob\n<size:10>sdm.gcms.GsonObjects.Core" as sdm.gcms.GsonObjects.Core.ChronJob [[ChronJob.html]] {
        +chronjobid: String
        +commmands: List<String>
        +parameters: String
        +interval: String
        +start: long
        +last: long
        +stop: long
        +ChronJob()
        +ChronJob(String, List<String>, String, String, long, long, long)
        +getParameters(): String
        +setParameters(String): void
        +getLast(): long
        +setLast(long): void
        +getCommmands(): List<String>
        +setCommmands(List<String>): void
        +getChronjobid(): String
        +setChronjobid(String): void
        +getInterval(): String
        +setInterval(String): void
        +getStart(): long
        +setStart(long): void
        +getStop(): long
        +setStop(long): void
    }

    center footer UMLDoclet 2.0.14, PlantUML 1.2021.9
@enduml

PlantUML version 1.2021.9(Sun Jul 25 12:13:56 CEST 2021)
(APACHE source distribution)
Java Runtime: Java(TM) SE Runtime Environment
JVM: Java HotSpot(TM) 64-Bit Server VM
Default Encoding: Cp1252
Language: nl
Country: BE
--></g></svg>