<?xml version="1.0" encoding="UTF-8" standalone="no"?><svg xmlns="http://www.w3.org/2000/svg" xmlns:xlink="http://www.w3.org/1999/xlink" contentScriptType="application/ecmascript" contentStyleType="text/css" height="573px" preserveAspectRatio="none" style="width:523px;height:573px;background:#FFFFFF;" version="1.1" viewBox="0 0 523 573" width="523px" zoomAndPan="magnify"><defs><filter height="300%" id="f174o2119xof0m" width="300%" x="-1" y="-1"><feGaussianBlur result="blurOut" stdDeviation="2.0"/><feColorMatrix in="blurOut" result="blurOut2" type="matrix" values="0 0 0 0 0 0 0 0 0 0 0 0 0 0 0 0 0 0 .4 0"/><feOffset dx="4.0" dy="4.0" in="blurOut2" result="blurOut3"/><feBlend in="SourceGraphic" in2="blurOut3" mode="normal"/></filter></defs><g><!--MD5=[bae97532a4745acd11981ebec2e32674]
class sdm.gcms.GsonObjects.Core.Command--><a href="Command.html" target="_top" title="Command.html" xlink:actuate="onRequest" xlink:href="Command.html" xlink:show="new" xlink:title="Command.html" xlink:type="simple"><rect codeLine="5" fill="#FEFECE" filter="url(#f174o2119xof0m)" height="540.4453" id="sdm.gcms.GsonObjects.Core.Command" style="stroke:#A80036;stroke-width:1.5;" width="502" x="7" y="7"/><ellipse cx="186.75" cy="27.0938" fill="#ADD1B2" rx="11" ry="11" style="stroke:#A80036;stroke-width:1.0;"/><path d="M189.5156,22.9688 Q189.6719,22.75 189.8594,22.6406 Q190.0469,22.5313 190.2656,22.5313 Q190.6406,22.5313 190.875,22.7969 Q191.1094,23.0469 191.1094,23.6563 L191.1094,25.1094 Q191.1094,25.7188 190.875,25.9844 Q190.6406,26.25 190.2656,26.25 Q189.9219,26.25 189.7188,26.0469 Q189.5156,25.8594 189.4063,25.3438 Q189.3594,24.9844 189.1719,24.7969 Q188.8438,24.4219 188.2344,24.2031 Q187.625,23.9844 187,23.9844 Q186.2344,23.9844 185.5938,24.3125 Q184.9688,24.6406 184.4688,25.3906 Q183.9844,26.1406 183.9844,27.1719 L183.9844,28.2656 Q183.9844,29.5 184.875,30.3281 Q185.7656,31.1406 187.3594,31.1406 Q188.2969,31.1406 188.9531,30.8906 Q189.3438,30.7344 189.7656,30.2969 Q190.0313,30.0313 190.1719,29.9531 Q190.3281,29.875 190.5313,29.875 Q190.8594,29.875 191.1094,30.1406 Q191.375,30.3906 191.375,30.7344 Q191.375,31.0781 191.0313,31.4844 Q190.5313,32.0625 189.7344,32.3906 Q188.6563,32.8438 187.3594,32.8438 Q185.8438,32.8438 184.6406,32.2188 Q183.6563,31.7188 182.9688,30.6563 Q182.2813,29.5781 182.2813,28.2969 L182.2813,27.1406 Q182.2813,25.8125 182.8906,24.6719 Q183.5156,23.5156 184.6094,22.9063 Q185.7031,22.2813 186.9375,22.2813 Q187.6719,22.2813 188.3125,22.4531 Q188.9688,22.6094 189.5156,22.9688 Z " fill="#000000"/><text fill="#000000" font-family="sans-serif" font-size="14" lengthAdjust="spacing" textLength="66" x="241.25" y="26.5332">Command</text><text fill="#000000" font-family="sans-serif" font-size="10" lengthAdjust="spacing" textLength="134" x="207.25" y="39.9902">sdm.gcms.GsonObjects.Core</text><line style="stroke:#A80036;stroke-width:1.5;" x1="8" x2="508" y1="47.1875" y2="47.1875"/><ellipse cx="18" cy="58.1875" rx="3" ry="3" style="stroke:#038048;stroke-width:1.0;fill:none;"/><text fill="#000000" font-family="sans-serif" font-size="11" lengthAdjust="spacing" textLength="90" x="27" y="62.6064">commandid: String</text><ellipse cx="18" cy="72.0234" rx="3" ry="3" style="stroke:#038048;stroke-width:1.0;fill:none;"/><text fill="#000000" font-family="sans-serif" font-size="11" lengthAdjust="spacing" textLength="61" x="27" y="76.4424">name: String</text><ellipse cx="18" cy="85.8594" rx="3" ry="3" style="stroke:#038048;stroke-width:1.0;fill:none;"/><text fill="#000000" font-family="sans-serif" font-size="11" lengthAdjust="spacing" textLength="82" x="27" y="90.2783">command: String</text><ellipse cx="18" cy="99.6953" rx="3" ry="3" style="stroke:#038048;stroke-width:1.0;fill:none;"/><text fill="#000000" font-family="sans-serif" font-size="11" lengthAdjust="spacing" textLength="87" x="27" y="104.1143">description: String</text><ellipse cx="18" cy="113.5313" rx="3" ry="3" style="stroke:#038048;stroke-width:1.0;fill:none;"/><text fill="#000000" font-family="sans-serif" font-size="11" lengthAdjust="spacing" textLength="90" x="27" y="117.9502">parameters: String</text><ellipse cx="18" cy="127.3672" rx="3" ry="3" style="stroke:#038048;stroke-width:1.0;fill:none;"/><text fill="#000000" font-family="sans-serif" font-size="11" lengthAdjust="spacing" textLength="124" x="27" y="131.7861">accessType: List&lt;String&gt;</text><ellipse cx="18" cy="141.2031" rx="3" ry="3" style="stroke:#038048;stroke-width:1.0;fill:none;"/><text fill="#000000" font-family="sans-serif" font-size="11" lengthAdjust="spacing" textLength="138" x="27" y="145.6221">executionRoles: List&lt;String&gt;</text><ellipse cx="18" cy="155.0391" rx="3" ry="3" style="stroke:#038048;stroke-width:1.0;fill:none;"/><text fill="#000000" font-family="sans-serif" font-size="11" lengthAdjust="spacing" textLength="103" x="27" y="159.458">executionLimit: String</text><ellipse cx="18" cy="168.875" rx="3" ry="3" style="stroke:#038048;stroke-width:1.0;fill:none;"/><text fill="#000000" font-family="sans-serif" font-size="11" lengthAdjust="spacing" textLength="110" x="27" y="173.2939">executionCount: String</text><ellipse cx="18" cy="182.7109" rx="3" ry="3" style="stroke:#038048;stroke-width:1.0;fill:none;"/><text fill="#000000" font-family="sans-serif" font-size="11" lengthAdjust="spacing" textLength="139" x="27" y="187.1299">executionLimitInterval: String</text><ellipse cx="18" cy="196.5469" rx="3" ry="3" style="stroke:#038048;stroke-width:1.0;fill:none;"/><text fill="#000000" font-family="sans-serif" font-size="11" lengthAdjust="spacing" textLength="91" x="27" y="200.9658">lastExecution: long</text><line style="stroke:#A80036;stroke-width:1.5;" x1="8" x2="508" y1="207.3828" y2="207.3828"/><ellipse cx="18" cy="218.3828" fill="#84BE84" rx="3" ry="3" style="stroke:#038048;stroke-width:1.0;"/><text fill="#000000" font-family="sans-serif" font-size="11" lengthAdjust="spacing" textLength="476" x="27" y="222.8018">Command(String, String, String, String, String, List&lt;String&gt;, List&lt;String&gt;, String, String, String, long)</text><ellipse cx="18" cy="232.2188" fill="#84BE84" rx="3" ry="3" style="stroke:#038048;stroke-width:1.0;"/><text fill="#000000" font-family="sans-serif" font-size="11" lengthAdjust="spacing" textLength="58" x="27" y="236.6377">Command()</text><ellipse cx="18" cy="246.0547" fill="#84BE84" rx="3" ry="3" style="stroke:#038048;stroke-width:1.0;"/><text fill="#000000" font-family="sans-serif" font-size="11" lengthAdjust="spacing" textLength="162" x="27" y="250.4736">getExecutionRoles(): List&lt;String&gt;</text><ellipse cx="18" cy="259.8906" fill="#84BE84" rx="3" ry="3" style="stroke:#038048;stroke-width:1.0;"/><text fill="#000000" font-family="sans-serif" font-size="11" lengthAdjust="spacing" textLength="182" x="27" y="264.3096">setExecutionRoles(List&lt;String&gt;): void</text><ellipse cx="18" cy="273.7266" fill="#84BE84" rx="3" ry="3" style="stroke:#038048;stroke-width:1.0;"/><text fill="#000000" font-family="sans-serif" font-size="11" lengthAdjust="spacing" textLength="134" x="27" y="278.1455">getExecutionCount(): String</text><ellipse cx="18" cy="287.5625" fill="#84BE84" rx="3" ry="3" style="stroke:#038048;stroke-width:1.0;"/><text fill="#000000" font-family="sans-serif" font-size="11" lengthAdjust="spacing" textLength="154" x="27" y="291.9814">setExecutionCount(String): void</text><ellipse cx="18" cy="301.3984" fill="#84BE84" rx="3" ry="3" style="stroke:#038048;stroke-width:1.0;"/><text fill="#000000" font-family="sans-serif" font-size="11" lengthAdjust="spacing" textLength="163" x="27" y="305.8174">getExecutionLimitInterval(): String</text><ellipse cx="18" cy="315.2344" fill="#84BE84" rx="3" ry="3" style="stroke:#038048;stroke-width:1.0;"/><text fill="#000000" font-family="sans-serif" font-size="11" lengthAdjust="spacing" textLength="183" x="27" y="319.6533">setExecutionLimitInterval(String): void</text><ellipse cx="18" cy="329.0703" fill="#84BE84" rx="3" ry="3" style="stroke:#038048;stroke-width:1.0;"/><text fill="#000000" font-family="sans-serif" font-size="11" lengthAdjust="spacing" textLength="148" x="27" y="333.4893">getAccessType(): List&lt;String&gt;</text><ellipse cx="18" cy="342.9063" fill="#84BE84" rx="3" ry="3" style="stroke:#038048;stroke-width:1.0;"/><text fill="#000000" font-family="sans-serif" font-size="11" lengthAdjust="spacing" textLength="168" x="27" y="347.3252">setAccessType(List&lt;String&gt;): void</text><ellipse cx="18" cy="356.7422" fill="#84BE84" rx="3" ry="3" style="stroke:#038048;stroke-width:1.0;"/><text fill="#000000" font-family="sans-serif" font-size="11" lengthAdjust="spacing" textLength="127" x="27" y="361.1611">getExecutionLimit(): String</text><ellipse cx="18" cy="370.5781" fill="#84BE84" rx="3" ry="3" style="stroke:#038048;stroke-width:1.0;"/><text fill="#000000" font-family="sans-serif" font-size="11" lengthAdjust="spacing" textLength="147" x="27" y="374.9971">setExecutionLimit(String): void</text><ellipse cx="18" cy="384.4141" fill="#84BE84" rx="3" ry="3" style="stroke:#038048;stroke-width:1.0;"/><text fill="#000000" font-family="sans-serif" font-size="11" lengthAdjust="spacing" textLength="118" x="27" y="388.833">getLastExecution(): long</text><ellipse cx="18" cy="398.25" fill="#84BE84" rx="3" ry="3" style="stroke:#038048;stroke-width:1.0;"/><text fill="#000000" font-family="sans-serif" font-size="11" lengthAdjust="spacing" textLength="138" x="27" y="402.6689">setLastExecution(long): void</text><ellipse cx="18" cy="412.0859" fill="#84BE84" rx="3" ry="3" style="stroke:#038048;stroke-width:1.0;"/><text fill="#000000" font-family="sans-serif" font-size="11" lengthAdjust="spacing" textLength="107" x="27" y="416.5049">getCommand(): String</text><ellipse cx="18" cy="425.9219" fill="#84BE84" rx="3" ry="3" style="stroke:#038048;stroke-width:1.0;"/><text fill="#000000" font-family="sans-serif" font-size="11" lengthAdjust="spacing" textLength="127" x="27" y="430.3408">setCommand(String): void</text><ellipse cx="18" cy="439.7578" fill="#84BE84" rx="3" ry="3" style="stroke:#038048;stroke-width:1.0;"/><text fill="#000000" font-family="sans-serif" font-size="11" lengthAdjust="spacing" textLength="114" x="27" y="444.1768">getParameters(): String</text><ellipse cx="18" cy="453.5938" fill="#84BE84" rx="3" ry="3" style="stroke:#038048;stroke-width:1.0;"/><text fill="#000000" font-family="sans-serif" font-size="11" lengthAdjust="spacing" textLength="134" x="27" y="458.0127">setParameters(String): void</text><ellipse cx="18" cy="467.4297" fill="#84BE84" rx="3" ry="3" style="stroke:#038048;stroke-width:1.0;"/><text fill="#000000" font-family="sans-serif" font-size="11" lengthAdjust="spacing" textLength="115" x="27" y="471.8486">getCommandid(): String</text><ellipse cx="18" cy="481.2656" fill="#84BE84" rx="3" ry="3" style="stroke:#038048;stroke-width:1.0;"/><text fill="#000000" font-family="sans-serif" font-size="11" lengthAdjust="spacing" textLength="135" x="27" y="485.6846">setCommandid(String): void</text><ellipse cx="18" cy="495.1016" fill="#84BE84" rx="3" ry="3" style="stroke:#038048;stroke-width:1.0;"/><text fill="#000000" font-family="sans-serif" font-size="11" lengthAdjust="spacing" textLength="86" x="27" y="499.5205">getName(): String</text><ellipse cx="18" cy="508.9375" fill="#84BE84" rx="3" ry="3" style="stroke:#038048;stroke-width:1.0;"/><text fill="#000000" font-family="sans-serif" font-size="11" lengthAdjust="spacing" textLength="106" x="27" y="513.3564">setName(String): void</text><ellipse cx="18" cy="522.7734" fill="#84BE84" rx="3" ry="3" style="stroke:#038048;stroke-width:1.0;"/><text fill="#000000" font-family="sans-serif" font-size="11" lengthAdjust="spacing" textLength="112" x="27" y="527.1924">getDescription(): String</text><ellipse cx="18" cy="536.6094" fill="#84BE84" rx="3" ry="3" style="stroke:#038048;stroke-width:1.0;"/><text fill="#000000" font-family="sans-serif" font-size="11" lengthAdjust="spacing" textLength="132" x="27" y="541.0283">setDescription(String): void</text></a><text fill="#888888" font-family="sans-serif" font-size="10" lengthAdjust="spacing" textLength="179" x="168.5" y="564.8262">UMLDoclet 2.0.14, PlantUML 1.2021.9</text><!--MD5=[48e5760d8805bdcc09bd6a16c0327367]
@startuml
    set namespaceSeparator none
    hide empty fields
    hide empty methods

    class "<size:14>Command\n<size:10>sdm.gcms.GsonObjects.Core" as sdm.gcms.GsonObjects.Core.Command [[Command.html]] {
        +commandid: String
        +name: String
        +command: String
        +description: String
        +parameters: String
        +accessType: List<String>
        +executionRoles: List<String>
        +executionLimit: String
        +executionCount: String
        +executionLimitInterval: String
        +lastExecution: long
        +Command(String, String, String, String, String, List<String>, List<String>, String, String, String, long)
        +Command()
        +getExecutionRoles(): List<String>
        +setExecutionRoles(List<String>): void
        +getExecutionCount(): String
        +setExecutionCount(String): void
        +getExecutionLimitInterval(): String
        +setExecutionLimitInterval(String): void
        +getAccessType(): List<String>
        +setAccessType(List<String>): void
        +getExecutionLimit(): String
        +setExecutionLimit(String): void
        +getLastExecution(): long
        +setLastExecution(long): void
        +getCommand(): String
        +setCommand(String): void
        +getParameters(): String
        +setParameters(String): void
        +getCommandid(): String
        +setCommandid(String): void
        +getName(): String
        +setName(String): void
        +getDescription(): String
        +setDescription(String): void
    }

    center footer UMLDoclet 2.0.14, PlantUML 1.2021.9
@enduml

PlantUML version 1.2021.9(Sun Jul 25 12:13:56 CEST 2021)
(APACHE source distribution)
Java Runtime: Java(TM) SE Runtime Environment
JVM: Java HotSpot(TM) 64-Bit Server VM
Default Encoding: Cp1252
Language: nl
Country: BE
--></g></svg>