<?xml version="1.0" encoding="UTF-8" standalone="no"?><svg xmlns="http://www.w3.org/2000/svg" xmlns:xlink="http://www.w3.org/1999/xlink" contentScriptType="application/ecmascript" contentStyleType="text/css" height="531px" preserveAspectRatio="none" style="width:415px;height:531px;background:#FFFFFF;" version="1.1" viewBox="0 0 415 531" width="415px" zoomAndPan="magnify"><defs><filter height="300%" id="fcksvzcle8uuu" width="300%" x="-1" y="-1"><feGaussianBlur result="blurOut" stdDeviation="2.0"/><feColorMatrix in="blurOut" result="blurOut2" type="matrix" values="0 0 0 0 0 0 0 0 0 0 0 0 0 0 0 0 0 0 .4 0"/><feOffset dx="4.0" dy="4.0" in="blurOut2" result="blurOut3"/><feBlend in="SourceGraphic" in2="blurOut3" mode="normal"/></filter></defs><g><!--MD5=[595461dd0b7d3fdcd9db5839f24cf880]
class sdm.gcms.GsonObjects.Core.Document--><a href="Document.html" target="_top" title="Document.html" xlink:actuate="onRequest" xlink:href="Document.html" xlink:show="new" xlink:title="Document.html" xlink:type="simple"><rect codeLine="5" fill="#FEFECE" filter="url(#fcksvzcle8uuu)" height="498.9375" id="sdm.gcms.GsonObjects.Core.Document" style="stroke:#A80036;stroke-width:1.5;" width="394" x="7" y="7"/><ellipse cx="132.75" cy="27.0938" fill="#ADD1B2" rx="11" ry="11" style="stroke:#A80036;stroke-width:1.0;"/><path d="M135.5156,22.9688 Q135.6719,22.75 135.8594,22.6406 Q136.0469,22.5313 136.2656,22.5313 Q136.6406,22.5313 136.875,22.7969 Q137.1094,23.0469 137.1094,23.6563 L137.1094,25.1094 Q137.1094,25.7188 136.875,25.9844 Q136.6406,26.25 136.2656,26.25 Q135.9219,26.25 135.7188,26.0469 Q135.5156,25.8594 135.4063,25.3438 Q135.3594,24.9844 135.1719,24.7969 Q134.8438,24.4219 134.2344,24.2031 Q133.625,23.9844 133,23.9844 Q132.2344,23.9844 131.5938,24.3125 Q130.9688,24.6406 130.4688,25.3906 Q129.9844,26.1406 129.9844,27.1719 L129.9844,28.2656 Q129.9844,29.5 130.875,30.3281 Q131.7656,31.1406 133.3594,31.1406 Q134.2969,31.1406 134.9531,30.8906 Q135.3438,30.7344 135.7656,30.2969 Q136.0313,30.0313 136.1719,29.9531 Q136.3281,29.875 136.5313,29.875 Q136.8594,29.875 137.1094,30.1406 Q137.375,30.3906 137.375,30.7344 Q137.375,31.0781 137.0313,31.4844 Q136.5313,32.0625 135.7344,32.3906 Q134.6563,32.8438 133.3594,32.8438 Q131.8438,32.8438 130.6406,32.2188 Q129.6563,31.7188 128.9688,30.6563 Q128.2813,29.5781 128.2813,28.2969 L128.2813,27.1406 Q128.2813,25.8125 128.8906,24.6719 Q129.5156,23.5156 130.6094,22.9063 Q131.7031,22.2813 132.9375,22.2813 Q133.6719,22.2813 134.3125,22.4531 Q134.9688,22.6094 135.5156,22.9688 Z " fill="#000000"/><text fill="#000000" font-family="sans-serif" font-size="14" lengthAdjust="spacing" textLength="65" x="187.75" y="26.5332">Document</text><text fill="#000000" font-family="sans-serif" font-size="10" lengthAdjust="spacing" textLength="134" x="153.25" y="39.9902">sdm.gcms.GsonObjects.Core</text><line style="stroke:#A80036;stroke-width:1.5;" x1="8" x2="400" y1="47.1875" y2="47.1875"/><ellipse cx="18" cy="58.1875" rx="3" ry="3" style="stroke:#038048;stroke-width:1.0;fill:none;"/><text fill="#000000" font-family="sans-serif" font-size="11" lengthAdjust="spacing" textLength="90" x="27" y="62.6064">documentid: String</text><ellipse cx="18" cy="72.0234" rx="3" ry="3" style="stroke:#038048;stroke-width:1.0;fill:none;"/><text fill="#000000" font-family="sans-serif" font-size="11" lengthAdjust="spacing" textLength="50" x="27" y="76.4424">title: String</text><ellipse cx="18" cy="85.8594" rx="3" ry="3" style="stroke:#038048;stroke-width:1.0;fill:none;"/><text fill="#000000" font-family="sans-serif" font-size="11" lengthAdjust="spacing" textLength="61" x="27" y="90.2783">prefix: String</text><ellipse cx="18" cy="99.6953" rx="3" ry="3" style="stroke:#038048;stroke-width:1.0;fill:none;"/><text fill="#000000" font-family="sans-serif" font-size="11" lengthAdjust="spacing" textLength="76" x="27" y="104.1143">contents: String</text><ellipse cx="18" cy="113.5313" rx="3" ry="3" style="stroke:#038048;stroke-width:1.0;fill:none;"/><text fill="#000000" font-family="sans-serif" font-size="11" lengthAdjust="spacing" textLength="78" x="27" y="117.9502">approver: String</text><ellipse cx="18" cy="127.3672" rx="3" ry="3" style="stroke:#038048;stroke-width:1.0;fill:none;"/><text fill="#000000" font-family="sans-serif" font-size="11" lengthAdjust="spacing" textLength="77" x="27" y="131.7861">category: String</text><ellipse cx="18" cy="141.2031" rx="3" ry="3" style="stroke:#038048;stroke-width:1.0;fill:none;"/><text fill="#000000" font-family="sans-serif" font-size="11" lengthAdjust="spacing" textLength="90" x="27" y="145.6221">approved_on: long</text><ellipse cx="18" cy="155.0391" rx="3" ry="3" style="stroke:#038048;stroke-width:1.0;fill:none;"/><text fill="#000000" font-family="sans-serif" font-size="11" lengthAdjust="spacing" textLength="89" x="27" y="159.458">created_by: String</text><ellipse cx="18" cy="168.875" rx="3" ry="3" style="stroke:#038048;stroke-width:1.0;fill:none;"/><text fill="#000000" font-family="sans-serif" font-size="11" lengthAdjust="spacing" textLength="73" x="27" y="173.2939">edited_on: long</text><ellipse cx="18" cy="182.7109" rx="3" ry="3" style="stroke:#038048;stroke-width:1.0;fill:none;"/><text fill="#000000" font-family="sans-serif" font-size="11" lengthAdjust="spacing" textLength="81" x="27" y="187.1299">created_on: long</text><line style="stroke:#A80036;stroke-width:1.5;" x1="8" x2="400" y1="193.5469" y2="193.5469"/><ellipse cx="18" cy="204.5469" fill="#84BE84" rx="3" ry="3" style="stroke:#038048;stroke-width:1.0;"/><text fill="#000000" font-family="sans-serif" font-size="11" lengthAdjust="spacing" textLength="58" x="27" y="208.9658">Document()</text><ellipse cx="18" cy="218.3828" fill="#84BE84" rx="3" ry="3" style="stroke:#038048;stroke-width:1.0;"/><text fill="#000000" font-family="sans-serif" font-size="11" lengthAdjust="spacing" textLength="368" x="27" y="222.8018">Document(String, String, String, String, String, String, long, long, String, long)</text><ellipse cx="18" cy="232.2188" fill="#84BE84" rx="3" ry="3" style="stroke:#038048;stroke-width:1.0;"/><text fill="#000000" font-family="sans-serif" font-size="11" lengthAdjust="spacing" textLength="85" x="27" y="236.6377">getPrefix(): String</text><ellipse cx="18" cy="246.0547" fill="#84BE84" rx="3" ry="3" style="stroke:#038048;stroke-width:1.0;"/><text fill="#000000" font-family="sans-serif" font-size="11" lengthAdjust="spacing" textLength="105" x="27" y="250.4736">setPrefix(String): void</text><ellipse cx="18" cy="259.8906" fill="#84BE84" rx="3" ry="3" style="stroke:#038048;stroke-width:1.0;"/><text fill="#000000" font-family="sans-serif" font-size="11" lengthAdjust="spacing" textLength="111" x="27" y="264.3096">getValidationid(): String</text><ellipse cx="18" cy="273.7266" fill="#84BE84" rx="3" ry="3" style="stroke:#038048;stroke-width:1.0;"/><text fill="#000000" font-family="sans-serif" font-size="11" lengthAdjust="spacing" textLength="131" x="27" y="278.1455">setValidationid(String): void</text><ellipse cx="18" cy="287.5625" fill="#84BE84" rx="3" ry="3" style="stroke:#038048;stroke-width:1.0;"/><text fill="#000000" font-family="sans-serif" font-size="11" lengthAdjust="spacing" textLength="77" x="27" y="291.9814">getTitle(): String</text><ellipse cx="18" cy="301.3984" fill="#84BE84" rx="3" ry="3" style="stroke:#038048;stroke-width:1.0;"/><text fill="#000000" font-family="sans-serif" font-size="11" lengthAdjust="spacing" textLength="97" x="27" y="305.8174">setTitle(String): void</text><ellipse cx="18" cy="315.2344" fill="#84BE84" rx="3" ry="3" style="stroke:#038048;stroke-width:1.0;"/><text fill="#000000" font-family="sans-serif" font-size="11" lengthAdjust="spacing" textLength="101" x="27" y="319.6533">getContents(): String</text><ellipse cx="18" cy="329.0703" fill="#84BE84" rx="3" ry="3" style="stroke:#038048;stroke-width:1.0;"/><text fill="#000000" font-family="sans-serif" font-size="11" lengthAdjust="spacing" textLength="121" x="27" y="333.4893">setContents(String): void</text><ellipse cx="18" cy="342.9063" fill="#84BE84" rx="3" ry="3" style="stroke:#038048;stroke-width:1.0;"/><text fill="#000000" font-family="sans-serif" font-size="11" lengthAdjust="spacing" textLength="102" x="27" y="347.3252">getApprover(): String</text><ellipse cx="18" cy="356.7422" fill="#84BE84" rx="3" ry="3" style="stroke:#038048;stroke-width:1.0;"/><text fill="#000000" font-family="sans-serif" font-size="11" lengthAdjust="spacing" textLength="122" x="27" y="361.1611">setApprover(String): void</text><ellipse cx="18" cy="370.5781" fill="#84BE84" rx="3" ry="3" style="stroke:#038048;stroke-width:1.0;"/><text fill="#000000" font-family="sans-serif" font-size="11" lengthAdjust="spacing" textLength="102" x="27" y="374.9971">getCategory(): String</text><ellipse cx="18" cy="384.4141" fill="#84BE84" rx="3" ry="3" style="stroke:#038048;stroke-width:1.0;"/><text fill="#000000" font-family="sans-serif" font-size="11" lengthAdjust="spacing" textLength="122" x="27" y="388.833">setCategory(String): void</text><ellipse cx="18" cy="398.25" fill="#84BE84" rx="3" ry="3" style="stroke:#038048;stroke-width:1.0;"/><text fill="#000000" font-family="sans-serif" font-size="11" lengthAdjust="spacing" textLength="114" x="27" y="402.6689">getApproved_on(): long</text><ellipse cx="18" cy="412.0859" fill="#84BE84" rx="3" ry="3" style="stroke:#038048;stroke-width:1.0;"/><text fill="#000000" font-family="sans-serif" font-size="11" lengthAdjust="spacing" textLength="134" x="27" y="416.5049">setApproved_on(long): void</text><ellipse cx="18" cy="425.9219" fill="#84BE84" rx="3" ry="3" style="stroke:#038048;stroke-width:1.0;"/><text fill="#000000" font-family="sans-serif" font-size="11" lengthAdjust="spacing" textLength="106" x="27" y="430.3408">getCreated_on(): long</text><ellipse cx="18" cy="439.7578" fill="#84BE84" rx="3" ry="3" style="stroke:#038048;stroke-width:1.0;"/><text fill="#000000" font-family="sans-serif" font-size="11" lengthAdjust="spacing" textLength="126" x="27" y="444.1768">setCreated_on(long): void</text><ellipse cx="18" cy="453.5938" fill="#84BE84" rx="3" ry="3" style="stroke:#038048;stroke-width:1.0;"/><text fill="#000000" font-family="sans-serif" font-size="11" lengthAdjust="spacing" textLength="114" x="27" y="458.0127">getCreated_by(): String</text><ellipse cx="18" cy="467.4297" fill="#84BE84" rx="3" ry="3" style="stroke:#038048;stroke-width:1.0;"/><text fill="#000000" font-family="sans-serif" font-size="11" lengthAdjust="spacing" textLength="134" x="27" y="471.8486">setCreated_by(String): void</text><ellipse cx="18" cy="481.2656" fill="#84BE84" rx="3" ry="3" style="stroke:#038048;stroke-width:1.0;"/><text fill="#000000" font-family="sans-serif" font-size="11" lengthAdjust="spacing" textLength="97" x="27" y="485.6846">getEdited_on(): long</text><ellipse cx="18" cy="495.1016" fill="#84BE84" rx="3" ry="3" style="stroke:#038048;stroke-width:1.0;"/><text fill="#000000" font-family="sans-serif" font-size="11" lengthAdjust="spacing" textLength="117" x="27" y="499.5205">setEdited_on(long): void</text></a><text fill="#888888" font-family="sans-serif" font-size="10" lengthAdjust="spacing" textLength="179" x="114.5" y="523.3184">UMLDoclet 2.0.14, PlantUML 1.2021.9</text><!--MD5=[66ceb136ba49e9978e68b5041bafd614]
@startuml
    set namespaceSeparator none
    hide empty fields
    hide empty methods

    class "<size:14>Document\n<size:10>sdm.gcms.GsonObjects.Core" as sdm.gcms.GsonObjects.Core.Document [[Document.html]] {
        +documentid: String
        +title: String
        +prefix: String
        +contents: String
        +approver: String
        +category: String
        +approved_on: long
        +created_by: String
        +edited_on: long
        +created_on: long
        +Document()
        +Document(String, String, String, String, String, String, long, long, String, long)
        +getPrefix(): String
        +setPrefix(String): void
        +getValidationid(): String
        +setValidationid(String): void
        +getTitle(): String
        +setTitle(String): void
        +getContents(): String
        +setContents(String): void
        +getApprover(): String
        +setApprover(String): void
        +getCategory(): String
        +setCategory(String): void
        +getApproved_on(): long
        +setApproved_on(long): void
        +getCreated_on(): long
        +setCreated_on(long): void
        +getCreated_by(): String
        +setCreated_by(String): void
        +getEdited_on(): long
        +setEdited_on(long): void
    }

    center footer UMLDoclet 2.0.14, PlantUML 1.2021.9
@enduml

PlantUML version 1.2021.9(Sun Jul 25 12:13:56 CEST 2021)
(APACHE source distribution)
Java Runtime: Java(TM) SE Runtime Environment
JVM: Java HotSpot(TM) 64-Bit Server VM
Default Encoding: Cp1252
Language: nl
Country: BE
--></g></svg>