<?xml version="1.0" encoding="UTF-8" standalone="no"?><svg xmlns="http://www.w3.org/2000/svg" xmlns:xlink="http://www.w3.org/1999/xlink" contentScriptType="application/ecmascript" contentStyleType="text/css" height="545px" preserveAspectRatio="none" style="width:462px;height:545px;background:#FFFFFF;" version="1.1" viewBox="0 0 462 545" width="462px" zoomAndPan="magnify"><defs><filter height="300%" id="f14ghrzurl9856" width="300%" x="-1" y="-1"><feGaussianBlur result="blurOut" stdDeviation="2.0"/><feColorMatrix in="blurOut" result="blurOut2" type="matrix" values="0 0 0 0 0 0 0 0 0 0 0 0 0 0 0 0 0 0 .4 0"/><feOffset dx="4.0" dy="4.0" in="blurOut2" result="blurOut3"/><feBlend in="SourceGraphic" in2="blurOut3" mode="normal"/></filter></defs><g><!--MD5=[14e162ef5e9e21a7e3b45acce23edc38]
class sdm.gcms.GsonObjects.Core.EditablePage--><a href="EditablePage.html" target="_top" title="EditablePage.html" xlink:actuate="onRequest" xlink:href="EditablePage.html" xlink:show="new" xlink:title="EditablePage.html" xlink:type="simple"><rect codeLine="5" fill="#FEFECE" filter="url(#f14ghrzurl9856)" height="512.7734" id="sdm.gcms.GsonObjects.Core.EditablePage" style="stroke:#A80036;stroke-width:1.5;" width="441" x="7" y="7"/><ellipse cx="156.25" cy="27.0938" fill="#ADD1B2" rx="11" ry="11" style="stroke:#A80036;stroke-width:1.0;"/><path d="M159.0156,22.9688 Q159.1719,22.75 159.3594,22.6406 Q159.5469,22.5313 159.7656,22.5313 Q160.1406,22.5313 160.375,22.7969 Q160.6094,23.0469 160.6094,23.6563 L160.6094,25.1094 Q160.6094,25.7188 160.375,25.9844 Q160.1406,26.25 159.7656,26.25 Q159.4219,26.25 159.2188,26.0469 Q159.0156,25.8594 158.9063,25.3438 Q158.8594,24.9844 158.6719,24.7969 Q158.3438,24.4219 157.7344,24.2031 Q157.125,23.9844 156.5,23.9844 Q155.7344,23.9844 155.0938,24.3125 Q154.4688,24.6406 153.9688,25.3906 Q153.4844,26.1406 153.4844,27.1719 L153.4844,28.2656 Q153.4844,29.5 154.375,30.3281 Q155.2656,31.1406 156.8594,31.1406 Q157.7969,31.1406 158.4531,30.8906 Q158.8438,30.7344 159.2656,30.2969 Q159.5313,30.0313 159.6719,29.9531 Q159.8281,29.875 160.0313,29.875 Q160.3594,29.875 160.6094,30.1406 Q160.875,30.3906 160.875,30.7344 Q160.875,31.0781 160.5313,31.4844 Q160.0313,32.0625 159.2344,32.3906 Q158.1563,32.8438 156.8594,32.8438 Q155.3438,32.8438 154.1406,32.2188 Q153.1563,31.7188 152.4688,30.6563 Q151.7813,29.5781 151.7813,28.2969 L151.7813,27.1406 Q151.7813,25.8125 152.3906,24.6719 Q153.0156,23.5156 154.1094,22.9063 Q155.2031,22.2813 156.4375,22.2813 Q157.1719,22.2813 157.8125,22.4531 Q158.4688,22.6094 159.0156,22.9688 Z " fill="#000000"/><text fill="#000000" font-family="sans-serif" font-size="14" lengthAdjust="spacing" textLength="84" x="201.75" y="26.5332">EditablePage</text><text fill="#000000" font-family="sans-serif" font-size="10" lengthAdjust="spacing" textLength="134" x="176.75" y="39.9902">sdm.gcms.GsonObjects.Core</text><line style="stroke:#A80036;stroke-width:1.5;" x1="8" x2="447" y1="47.1875" y2="47.1875"/><ellipse cx="18" cy="58.1875" rx="3" ry="3" style="stroke:#038048;stroke-width:1.0;fill:none;"/><text fill="#000000" font-family="sans-serif" font-size="11" lengthAdjust="spacing" textLength="103" x="27" y="62.6064">editablepageid: String</text><ellipse cx="18" cy="72.0234" rx="3" ry="3" style="stroke:#038048;stroke-width:1.0;fill:none;"/><text fill="#000000" font-family="sans-serif" font-size="11" lengthAdjust="spacing" textLength="50" x="27" y="76.4424">title: String</text><ellipse cx="18" cy="85.8594" rx="3" ry="3" style="stroke:#038048;stroke-width:1.0;fill:none;"/><text fill="#000000" font-family="sans-serif" font-size="11" lengthAdjust="spacing" textLength="76" x="27" y="90.2783">contents: String</text><ellipse cx="18" cy="99.6953" rx="3" ry="3" style="stroke:#038048;stroke-width:1.0;fill:none;"/><text fill="#000000" font-family="sans-serif" font-size="11" lengthAdjust="spacing" textLength="75" x="27" y="104.1143">template: String</text><ellipse cx="18" cy="113.5313" rx="3" ry="3" style="stroke:#038048;stroke-width:1.0;fill:none;"/><text fill="#000000" font-family="sans-serif" font-size="11" lengthAdjust="spacing" textLength="78" x="27" y="117.9502">approver: String</text><ellipse cx="18" cy="127.3672" rx="3" ry="3" style="stroke:#038048;stroke-width:1.0;fill:none;"/><text fill="#000000" font-family="sans-serif" font-size="11" lengthAdjust="spacing" textLength="77" x="27" y="131.7861">category: String</text><ellipse cx="18" cy="141.2031" rx="3" ry="3" style="stroke:#038048;stroke-width:1.0;fill:none;"/><text fill="#000000" font-family="sans-serif" font-size="11" lengthAdjust="spacing" textLength="95" x="27" y="145.6221">accessType: String</text><ellipse cx="18" cy="155.0391" rx="3" ry="3" style="stroke:#038048;stroke-width:1.0;fill:none;"/><text fill="#000000" font-family="sans-serif" font-size="11" lengthAdjust="spacing" textLength="90" x="27" y="159.458">approved_on: long</text><ellipse cx="18" cy="168.875" rx="3" ry="3" style="stroke:#038048;stroke-width:1.0;fill:none;"/><text fill="#000000" font-family="sans-serif" font-size="11" lengthAdjust="spacing" textLength="81" x="27" y="173.2939">created_on: long</text><ellipse cx="18" cy="182.7109" rx="3" ry="3" style="stroke:#038048;stroke-width:1.0;fill:none;"/><text fill="#000000" font-family="sans-serif" font-size="11" lengthAdjust="spacing" textLength="89" x="27" y="187.1299">created_by: String</text><ellipse cx="18" cy="196.5469" rx="3" ry="3" style="stroke:#038048;stroke-width:1.0;fill:none;"/><text fill="#000000" font-family="sans-serif" font-size="11" lengthAdjust="spacing" textLength="73" x="27" y="200.9658">edited_on: long</text><line style="stroke:#A80036;stroke-width:1.5;" x1="8" x2="447" y1="207.3828" y2="207.3828"/><ellipse cx="18" cy="218.3828" fill="#84BE84" rx="3" ry="3" style="stroke:#038048;stroke-width:1.0;"/><text fill="#000000" font-family="sans-serif" font-size="11" lengthAdjust="spacing" textLength="71" x="27" y="222.8018">EditablePage()</text><ellipse cx="18" cy="232.2188" fill="#84BE84" rx="3" ry="3" style="stroke:#038048;stroke-width:1.0;"/><text fill="#000000" font-family="sans-serif" font-size="11" lengthAdjust="spacing" textLength="415" x="27" y="236.6377">EditablePage(String, String, String, String, String, String, String, long, long, String, long)</text><ellipse cx="18" cy="246.0547" fill="#84BE84" rx="3" ry="3" style="stroke:#038048;stroke-width:1.0;"/><text fill="#000000" font-family="sans-serif" font-size="11" lengthAdjust="spacing" textLength="119" x="27" y="250.4736">getAccessType(): String</text><ellipse cx="18" cy="259.8906" fill="#84BE84" rx="3" ry="3" style="stroke:#038048;stroke-width:1.0;"/><text fill="#000000" font-family="sans-serif" font-size="11" lengthAdjust="spacing" textLength="139" x="27" y="264.3096">setAccessType(String): void</text><ellipse cx="18" cy="273.7266" fill="#84BE84" rx="3" ry="3" style="stroke:#038048;stroke-width:1.0;"/><text fill="#000000" font-family="sans-serif" font-size="11" lengthAdjust="spacing" textLength="127" x="27" y="278.1455">getEditablepageid(): String</text><ellipse cx="18" cy="287.5625" fill="#84BE84" rx="3" ry="3" style="stroke:#038048;stroke-width:1.0;"/><text fill="#000000" font-family="sans-serif" font-size="11" lengthAdjust="spacing" textLength="147" x="27" y="291.9814">setEditablepageid(String): void</text><ellipse cx="18" cy="301.3984" fill="#84BE84" rx="3" ry="3" style="stroke:#038048;stroke-width:1.0;"/><text fill="#000000" font-family="sans-serif" font-size="11" lengthAdjust="spacing" textLength="77" x="27" y="305.8174">getTitle(): String</text><ellipse cx="18" cy="315.2344" fill="#84BE84" rx="3" ry="3" style="stroke:#038048;stroke-width:1.0;"/><text fill="#000000" font-family="sans-serif" font-size="11" lengthAdjust="spacing" textLength="97" x="27" y="319.6533">setTitle(String): void</text><ellipse cx="18" cy="329.0703" fill="#84BE84" rx="3" ry="3" style="stroke:#038048;stroke-width:1.0;"/><text fill="#000000" font-family="sans-serif" font-size="11" lengthAdjust="spacing" textLength="101" x="27" y="333.4893">getContents(): String</text><ellipse cx="18" cy="342.9063" fill="#84BE84" rx="3" ry="3" style="stroke:#038048;stroke-width:1.0;"/><text fill="#000000" font-family="sans-serif" font-size="11" lengthAdjust="spacing" textLength="121" x="27" y="347.3252">setContents(String): void</text><ellipse cx="18" cy="356.7422" fill="#84BE84" rx="3" ry="3" style="stroke:#038048;stroke-width:1.0;"/><text fill="#000000" font-family="sans-serif" font-size="11" lengthAdjust="spacing" textLength="102" x="27" y="361.1611">getApprover(): String</text><ellipse cx="18" cy="370.5781" fill="#84BE84" rx="3" ry="3" style="stroke:#038048;stroke-width:1.0;"/><text fill="#000000" font-family="sans-serif" font-size="11" lengthAdjust="spacing" textLength="122" x="27" y="374.9971">setApprover(String): void</text><ellipse cx="18" cy="384.4141" fill="#84BE84" rx="3" ry="3" style="stroke:#038048;stroke-width:1.0;"/><text fill="#000000" font-family="sans-serif" font-size="11" lengthAdjust="spacing" textLength="102" x="27" y="388.833">getCategory(): String</text><ellipse cx="18" cy="398.25" fill="#84BE84" rx="3" ry="3" style="stroke:#038048;stroke-width:1.0;"/><text fill="#000000" font-family="sans-serif" font-size="11" lengthAdjust="spacing" textLength="122" x="27" y="402.6689">setCategory(String): void</text><ellipse cx="18" cy="412.0859" fill="#84BE84" rx="3" ry="3" style="stroke:#038048;stroke-width:1.0;"/><text fill="#000000" font-family="sans-serif" font-size="11" lengthAdjust="spacing" textLength="114" x="27" y="416.5049">getApproved_on(): long</text><ellipse cx="18" cy="425.9219" fill="#84BE84" rx="3" ry="3" style="stroke:#038048;stroke-width:1.0;"/><text fill="#000000" font-family="sans-serif" font-size="11" lengthAdjust="spacing" textLength="134" x="27" y="430.3408">setApproved_on(long): void</text><ellipse cx="18" cy="439.7578" fill="#84BE84" rx="3" ry="3" style="stroke:#038048;stroke-width:1.0;"/><text fill="#000000" font-family="sans-serif" font-size="11" lengthAdjust="spacing" textLength="106" x="27" y="444.1768">getCreated_on(): long</text><ellipse cx="18" cy="453.5938" fill="#84BE84" rx="3" ry="3" style="stroke:#038048;stroke-width:1.0;"/><text fill="#000000" font-family="sans-serif" font-size="11" lengthAdjust="spacing" textLength="126" x="27" y="458.0127">setCreated_on(long): void</text><ellipse cx="18" cy="467.4297" fill="#84BE84" rx="3" ry="3" style="stroke:#038048;stroke-width:1.0;"/><text fill="#000000" font-family="sans-serif" font-size="11" lengthAdjust="spacing" textLength="114" x="27" y="471.8486">getCreated_by(): String</text><ellipse cx="18" cy="481.2656" fill="#84BE84" rx="3" ry="3" style="stroke:#038048;stroke-width:1.0;"/><text fill="#000000" font-family="sans-serif" font-size="11" lengthAdjust="spacing" textLength="134" x="27" y="485.6846">setCreated_by(String): void</text><ellipse cx="18" cy="495.1016" fill="#84BE84" rx="3" ry="3" style="stroke:#038048;stroke-width:1.0;"/><text fill="#000000" font-family="sans-serif" font-size="11" lengthAdjust="spacing" textLength="97" x="27" y="499.5205">getEdited_on(): long</text><ellipse cx="18" cy="508.9375" fill="#84BE84" rx="3" ry="3" style="stroke:#038048;stroke-width:1.0;"/><text fill="#000000" font-family="sans-serif" font-size="11" lengthAdjust="spacing" textLength="117" x="27" y="513.3564">setEdited_on(long): void</text></a><text fill="#888888" font-family="sans-serif" font-size="10" lengthAdjust="spacing" textLength="179" x="138" y="537.1543">UMLDoclet 2.0.14, PlantUML 1.2021.9</text><!--MD5=[fd0c8dd353f2f020339d6cc6f7feb28d]
@startuml
    set namespaceSeparator none
    hide empty fields
    hide empty methods

    class "<size:14>EditablePage\n<size:10>sdm.gcms.GsonObjects.Core" as sdm.gcms.GsonObjects.Core.EditablePage [[EditablePage.html]] {
        +editablepageid: String
        +title: String
        +contents: String
        +template: String
        +approver: String
        +category: String
        +accessType: String
        +approved_on: long
        +created_on: long
        +created_by: String
        +edited_on: long
        +EditablePage()
        +EditablePage(String, String, String, String, String, String, String, long, long, String, long)
        +getAccessType(): String
        +setAccessType(String): void
        +getEditablepageid(): String
        +setEditablepageid(String): void
        +getTitle(): String
        +setTitle(String): void
        +getContents(): String
        +setContents(String): void
        +getApprover(): String
        +setApprover(String): void
        +getCategory(): String
        +setCategory(String): void
        +getApproved_on(): long
        +setApproved_on(long): void
        +getCreated_on(): long
        +setCreated_on(long): void
        +getCreated_by(): String
        +setCreated_by(String): void
        +getEdited_on(): long
        +setEdited_on(long): void
    }

    center footer UMLDoclet 2.0.14, PlantUML 1.2021.9
@enduml

PlantUML version 1.2021.9(Sun Jul 25 12:13:56 CEST 2021)
(APACHE source distribution)
Java Runtime: Java(TM) SE Runtime Environment
JVM: Java HotSpot(TM) 64-Bit Server VM
Default Encoding: Cp1252
Language: nl
Country: BE
--></g></svg>