<?xml version="1.0" encoding="UTF-8" standalone="no"?><svg xmlns="http://www.w3.org/2000/svg" xmlns:xlink="http://www.w3.org/1999/xlink" contentScriptType="application/ecmascript" contentStyleType="text/css" height="205px" preserveAspectRatio="none" style="width:553px;height:205px;background:#FFFFFF;" version="1.1" viewBox="0 0 553 205" width="553px" zoomAndPan="magnify"><defs><filter height="300%" id="f1474uwdbru95a" width="300%" x="-1" y="-1"><feGaussianBlur result="blurOut" stdDeviation="2.0"/><feColorMatrix in="blurOut" result="blurOut2" type="matrix" values="0 0 0 0 0 0 0 0 0 0 0 0 0 0 0 0 0 0 .4 0"/><feOffset dx="4.0" dy="4.0" in="blurOut2" result="blurOut3"/><feBlend in="SourceGraphic" in2="blurOut3" mode="normal"/></filter></defs><g><!--MD5=[3ba1ae28dafb3d82e37765373d8521a4]
class sdm.gcms.database.DatabaseWrapper--><a href="DatabaseWrapper.html" target="_top" title="DatabaseWrapper.html" xlink:actuate="onRequest" xlink:href="DatabaseWrapper.html" xlink:show="new" xlink:title="DatabaseWrapper.html" xlink:type="simple"><rect codeLine="5" fill="#FEFECE" filter="url(#f1474uwdbru95a)" height="172.7109" id="sdm.gcms.database.DatabaseWrapper" style="stroke:#A80036;stroke-width:1.5;" width="532" x="7" y="7"/><ellipse cx="210.75" cy="27.0938" fill="#ADD1B2" rx="11" ry="11" style="stroke:#A80036;stroke-width:1.0;"/><path d="M213.5156,22.9688 Q213.6719,22.75 213.8594,22.6406 Q214.0469,22.5313 214.2656,22.5313 Q214.6406,22.5313 214.875,22.7969 Q215.1094,23.0469 215.1094,23.6563 L215.1094,25.1094 Q215.1094,25.7188 214.875,25.9844 Q214.6406,26.25 214.2656,26.25 Q213.9219,26.25 213.7188,26.0469 Q213.5156,25.8594 213.4063,25.3438 Q213.3594,24.9844 213.1719,24.7969 Q212.8438,24.4219 212.2344,24.2031 Q211.625,23.9844 211,23.9844 Q210.2344,23.9844 209.5938,24.3125 Q208.9688,24.6406 208.4688,25.3906 Q207.9844,26.1406 207.9844,27.1719 L207.9844,28.2656 Q207.9844,29.5 208.875,30.3281 Q209.7656,31.1406 211.3594,31.1406 Q212.2969,31.1406 212.9531,30.8906 Q213.3438,30.7344 213.7656,30.2969 Q214.0313,30.0313 214.1719,29.9531 Q214.3281,29.875 214.5313,29.875 Q214.8594,29.875 215.1094,30.1406 Q215.375,30.3906 215.375,30.7344 Q215.375,31.0781 215.0313,31.4844 Q214.5313,32.0625 213.7344,32.3906 Q212.6563,32.8438 211.3594,32.8438 Q209.8438,32.8438 208.6406,32.2188 Q207.6563,31.7188 206.9688,30.6563 Q206.2813,29.5781 206.2813,28.2969 L206.2813,27.1406 Q206.2813,25.8125 206.8906,24.6719 Q207.5156,23.5156 208.6094,22.9063 Q209.7031,22.2813 210.9375,22.2813 Q211.6719,22.2813 212.3125,22.4531 Q212.9688,22.6094 213.5156,22.9688 Z " fill="#000000"/><text fill="#000000" font-family="sans-serif" font-size="14" lengthAdjust="spacing" textLength="116" x="231.25" y="26.5332">DatabaseWrapper</text><text fill="#000000" font-family="sans-serif" font-size="10" lengthAdjust="spacing" textLength="93" x="242.75" y="39.9902">sdm.gcms.database</text><line style="stroke:#A80036;stroke-width:1.5;" x1="8" x2="538" y1="47.1875" y2="47.1875"/><ellipse cx="18" cy="58.1875" fill="#84BE84" rx="3" ry="3" style="stroke:#038048;stroke-width:1.0;"/><text fill="#000000" font-family="sans-serif" font-size="11" lengthAdjust="spacing" text-decoration="underline" textLength="168" x="27" y="62.6064">getUserInfo(Session): ObjectNode</text><ellipse cx="18" cy="72.0234" fill="#84BE84" rx="3" ry="3" style="stroke:#038048;stroke-width:1.0;"/><text fill="#000000" font-family="sans-serif" font-size="11" lengthAdjust="spacing" text-decoration="underline" textLength="202" x="27" y="76.4424">getWebPage(String, String[]): ObjectNode</text><ellipse cx="18" cy="85.8594" fill="#84BE84" rx="3" ry="3" style="stroke:#038048;stroke-width:1.0;"/><text fill="#000000" font-family="sans-serif" font-size="11" lengthAdjust="spacing" text-decoration="underline" textLength="430" x="27" y="90.2783">getObjectSpecificRawDatav2(String, MongoConfigurations, Bson): ArrayList&lt;Document&gt;</text><ellipse cx="18" cy="99.6953" fill="#84BE84" rx="3" ry="3" style="stroke:#038048;stroke-width:1.0;"/><text fill="#000000" font-family="sans-serif" font-size="11" lengthAdjust="spacing" text-decoration="underline" textLength="387" x="27" y="104.1143">getObjectHashMapv2(String, MongoConfigurations, Bson): Map&lt;String, Object&gt;</text><ellipse cx="18" cy="113.5313" fill="#84BE84" rx="3" ry="3" style="stroke:#038048;stroke-width:1.0;"/><text fill="#000000" font-family="sans-serif" font-size="11" lengthAdjust="spacing" text-decoration="underline" textLength="506" x="27" y="117.9502">revertChanges(ArrayList&lt;Document&gt;, Map&lt;String, Object&gt;, MongoConfigurations): Map&lt;String, Object&gt;</text><ellipse cx="18" cy="127.3672" fill="#84BE84" rx="3" ry="3" style="stroke:#038048;stroke-width:1.0;"/><text fill="#000000" font-family="sans-serif" font-size="11" lengthAdjust="spacing" text-decoration="underline" textLength="123" x="27" y="131.7861">getAction(String): Actions</text><ellipse cx="18" cy="141.2031" fill="#84BE84" rx="3" ry="3" style="stroke:#038048;stroke-width:1.0;"/><text fill="#000000" font-family="sans-serif" font-size="11" lengthAdjust="spacing" text-decoration="underline" textLength="250" x="27" y="145.6221">getActionPriveleges(Actions): List&lt;ActionPrivelege&gt;</text><ellipse cx="18" cy="155.0391" fill="#84BE84" rx="3" ry="3" style="stroke:#038048;stroke-width:1.0;"/><text fill="#000000" font-family="sans-serif" font-size="11" lengthAdjust="spacing" text-decoration="underline" textLength="158" x="27" y="159.458">getActions(String): List&lt;Actions&gt;</text><ellipse cx="18" cy="168.875" fill="#84BE84" rx="3" ry="3" style="stroke:#038048;stroke-width:1.0;"/><text fill="#000000" font-family="sans-serif" font-size="11" lengthAdjust="spacing" text-decoration="underline" textLength="288" x="27" y="173.2939">checkActionAccess(String, List&lt;ActionPrivelege&gt;): Boolean</text></a><text fill="#888888" font-family="sans-serif" font-size="10" lengthAdjust="spacing" textLength="179" x="183.5" y="197.0918">UMLDoclet 2.0.14, PlantUML 1.2021.9</text><!--MD5=[55f4a018922d4802dd399a2d322488c8]
@startuml
    set namespaceSeparator none
    hide empty fields
    hide empty methods

    class "<size:14>DatabaseWrapper\n<size:10>sdm.gcms.database" as sdm.gcms.database.DatabaseWrapper [[DatabaseWrapper.html]] {
        {static} +getUserInfo(Session): ObjectNode
        {static} +getWebPage(String, String[]): ObjectNode
        {static} +getObjectSpecificRawDatav2(String, MongoConfigurations, Bson): ArrayList<Document>
        {static} +getObjectHashMapv2(String, MongoConfigurations, Bson): Map<String, Object>
        {static} +revertChanges(ArrayList<Document>, Map<String, Object>, MongoConfigurations): Map<String, Object>
        {static} +getAction(String): Actions
        {static} +getActionPriveleges(Actions): List<ActionPrivelege>
        {static} +getActions(String): List<Actions>
        {static} +checkActionAccess(String, List<ActionPrivelege>): Boolean
    }

    center footer UMLDoclet 2.0.14, PlantUML 1.2021.9
@enduml

PlantUML version 1.2021.9(Sun Jul 25 12:13:56 CEST 2021)
(APACHE source distribution)
Java Runtime: Java(TM) SE Runtime Environment
JVM: Java HotSpot(TM) 64-Bit Server VM
Default Encoding: Cp1252
Language: nl
Country: BE
--></g></svg>