<?xml version="1.0" encoding="UTF-8" standalone="no"?><svg xmlns="http://www.w3.org/2000/svg" xmlns:xlink="http://www.w3.org/1999/xlink" contentScriptType="application/ecmascript" contentStyleType="text/css" height="219px" preserveAspectRatio="none" style="width:322px;height:219px;background:#FFFFFF;" version="1.1" viewBox="0 0 322 219" width="322px" zoomAndPan="magnify"><defs><filter height="300%" id="f15144isyh9ljg" width="300%" x="-1" y="-1"><feGaussianBlur result="blurOut" stdDeviation="2.0"/><feColorMatrix in="blurOut" result="blurOut2" type="matrix" values="0 0 0 0 0 0 0 0 0 0 0 0 0 0 0 0 0 0 .4 0"/><feOffset dx="4.0" dy="4.0" in="blurOut2" result="blurOut3"/><feBlend in="SourceGraphic" in2="blurOut3" mode="normal"/></filter></defs><g><!--MD5=[79387e0ae0394e0b1b05586d57bd1cfd]
class sdm.gcms.database.GetResponse--><a href="GetResponse.html" target="_top" title="GetResponse.html" xlink:actuate="onRequest" xlink:href="GetResponse.html" xlink:show="new" xlink:title="GetResponse.html" xlink:type="simple"><rect codeLine="5" fill="#FEFECE" filter="url(#f15144isyh9ljg)" height="186.5469" id="sdm.gcms.database.GetResponse" style="stroke:#A80036;stroke-width:1.5;" width="301" x="7" y="7"/><ellipse cx="106.75" cy="27.0938" fill="#ADD1B2" rx="11" ry="11" style="stroke:#A80036;stroke-width:1.0;"/><path d="M109.5156,22.9688 Q109.6719,22.75 109.8594,22.6406 Q110.0469,22.5313 110.2656,22.5313 Q110.6406,22.5313 110.875,22.7969 Q111.1094,23.0469 111.1094,23.6563 L111.1094,25.1094 Q111.1094,25.7188 110.875,25.9844 Q110.6406,26.25 110.2656,26.25 Q109.9219,26.25 109.7188,26.0469 Q109.5156,25.8594 109.4063,25.3438 Q109.3594,24.9844 109.1719,24.7969 Q108.8438,24.4219 108.2344,24.2031 Q107.625,23.9844 107,23.9844 Q106.2344,23.9844 105.5938,24.3125 Q104.9688,24.6406 104.4688,25.3906 Q103.9844,26.1406 103.9844,27.1719 L103.9844,28.2656 Q103.9844,29.5 104.875,30.3281 Q105.7656,31.1406 107.3594,31.1406 Q108.2969,31.1406 108.9531,30.8906 Q109.3438,30.7344 109.7656,30.2969 Q110.0313,30.0313 110.1719,29.9531 Q110.3281,29.875 110.5313,29.875 Q110.8594,29.875 111.1094,30.1406 Q111.375,30.3906 111.375,30.7344 Q111.375,31.0781 111.0313,31.4844 Q110.5313,32.0625 109.7344,32.3906 Q108.6563,32.8438 107.3594,32.8438 Q105.8438,32.8438 104.6406,32.2188 Q103.6563,31.7188 102.9688,30.6563 Q102.2813,29.5781 102.2813,28.2969 L102.2813,27.1406 Q102.2813,25.8125 102.8906,24.6719 Q103.5156,23.5156 104.6094,22.9063 Q105.7031,22.2813 106.9375,22.2813 Q107.6719,22.2813 108.3125,22.4531 Q108.9688,22.6094 109.5156,22.9688 Z " fill="#000000"/><text fill="#000000" font-family="sans-serif" font-size="14" lengthAdjust="spacing" textLength="87" x="130.25" y="26.5332">GetResponse</text><text fill="#000000" font-family="sans-serif" font-size="10" lengthAdjust="spacing" textLength="93" x="127.25" y="39.9902">sdm.gcms.database</text><line style="stroke:#A80036;stroke-width:1.5;" x1="8" x2="307" y1="47.1875" y2="47.1875"/><ellipse cx="18" cy="58.1875" fill="#84BE84" rx="3" ry="3" style="stroke:#038048;stroke-width:1.0;"/><text fill="#000000" font-family="sans-serif" font-size="11" lengthAdjust="spacing" textLength="76" x="27" y="62.6064">GetResponse()</text><ellipse cx="18" cy="72.0234" fill="#84BE84" rx="3" ry="3" style="stroke:#038048;stroke-width:1.0;"/><text fill="#000000" font-family="sans-serif" font-size="11" lengthAdjust="spacing" textLength="275" x="27" y="76.4424">GetResponse(Integer, List&lt;Document&gt;, Integer, Integer)</text><ellipse cx="18" cy="85.8594" fill="#84BE84" rx="3" ry="3" style="stroke:#038048;stroke-width:1.0;"/><text fill="#000000" font-family="sans-serif" font-size="11" lengthAdjust="spacing" textLength="88" x="27" y="90.2783">getPage(): Integer</text><ellipse cx="18" cy="99.6953" fill="#84BE84" rx="3" ry="3" style="stroke:#038048;stroke-width:1.0;"/><text fill="#000000" font-family="sans-serif" font-size="11" lengthAdjust="spacing" textLength="108" x="27" y="104.1143">setPage(Integer): void</text><ellipse cx="18" cy="113.5313" fill="#84BE84" rx="3" ry="3" style="stroke:#038048;stroke-width:1.0;"/><text fill="#000000" font-family="sans-serif" font-size="11" lengthAdjust="spacing" textLength="105" x="27" y="117.9502">getRecords(): Integer</text><ellipse cx="18" cy="127.3672" fill="#84BE84" rx="3" ry="3" style="stroke:#038048;stroke-width:1.0;"/><text fill="#000000" font-family="sans-serif" font-size="11" lengthAdjust="spacing" textLength="125" x="27" y="131.7861">setRecords(Integer): void</text><ellipse cx="18" cy="141.2031" fill="#84BE84" rx="3" ry="3" style="stroke:#038048;stroke-width:1.0;"/><text fill="#000000" font-family="sans-serif" font-size="11" lengthAdjust="spacing" textLength="87" x="27" y="145.6221">getTotal(): Integer</text><ellipse cx="18" cy="155.0391" fill="#84BE84" rx="3" ry="3" style="stroke:#038048;stroke-width:1.0;"/><text fill="#000000" font-family="sans-serif" font-size="11" lengthAdjust="spacing" textLength="107" x="27" y="159.458">setTotal(Integer): void</text><ellipse cx="18" cy="168.875" fill="#84BE84" rx="3" ry="3" style="stroke:#038048;stroke-width:1.0;"/><text fill="#000000" font-family="sans-serif" font-size="11" lengthAdjust="spacing" textLength="136" x="27" y="173.2939">getRows(): List&lt;Document&gt;</text><ellipse cx="18" cy="182.7109" fill="#84BE84" rx="3" ry="3" style="stroke:#038048;stroke-width:1.0;"/><text fill="#000000" font-family="sans-serif" font-size="11" lengthAdjust="spacing" textLength="156" x="27" y="187.1299">setRows(List&lt;Document&gt;): void</text></a><text fill="#888888" font-family="sans-serif" font-size="10" lengthAdjust="spacing" textLength="179" x="68" y="210.9277">UMLDoclet 2.0.14, PlantUML 1.2021.9</text><!--MD5=[d42e4380f97fae8694d10dd36bf0ea66]
@startuml
    set namespaceSeparator none
    hide empty fields
    hide empty methods

    class "<size:14>GetResponse\n<size:10>sdm.gcms.database" as sdm.gcms.database.GetResponse [[GetResponse.html]] {
        +GetResponse()
        +GetResponse(Integer, List<Document>, Integer, Integer)
        +getPage(): Integer
        +setPage(Integer): void
        +getRecords(): Integer
        +setRecords(Integer): void
        +getTotal(): Integer
        +setTotal(Integer): void
        +getRows(): List<Document>
        +setRows(List<Document>): void
    }

    center footer UMLDoclet 2.0.14, PlantUML 1.2021.9
@enduml

PlantUML version 1.2021.9(Sun Jul 25 12:13:56 CEST 2021)
(APACHE source distribution)
Java Runtime: Java(TM) SE Runtime Environment
JVM: Java HotSpot(TM) 64-Bit Server VM
Default Encoding: Cp1252
Language: nl
Country: BE
--></g></svg>