<?xml version="1.0" encoding="UTF-8" standalone="no"?><svg xmlns="http://www.w3.org/2000/svg" xmlns:xlink="http://www.w3.org/1999/xlink" contentScriptType="application/ecmascript" contentStyleType="text/css" height="247px" preserveAspectRatio="none" style="width:484px;height:247px;background:#FFFFFF;" version="1.1" viewBox="0 0 484 247" width="484px" zoomAndPan="magnify"><defs><filter height="300%" id="fuqbjys5mt3av" width="300%" x="-1" y="-1"><feGaussianBlur result="blurOut" stdDeviation="2.0"/><feColorMatrix in="blurOut" result="blurOut2" type="matrix" values="0 0 0 0 0 0 0 0 0 0 0 0 0 0 0 0 0 0 .4 0"/><feOffset dx="4.0" dy="4.0" in="blurOut2" result="blurOut3"/><feBlend in="SourceGraphic" in2="blurOut3" mode="normal"/></filter></defs><g><!--MD5=[ef036793161d2266acdba8b380795ecf]
class sdm.gcms.modules.commandFunctions--><a href="commandFunctions.html" target="_top" title="commandFunctions.html" xlink:actuate="onRequest" xlink:href="commandFunctions.html" xlink:show="new" xlink:title="commandFunctions.html" xlink:type="simple"><rect codeLine="5" fill="#FEFECE" filter="url(#fuqbjys5mt3av)" height="214.2188" id="sdm.gcms.modules.commandFunctions" style="stroke:#A80036;stroke-width:1.5;" width="463" x="7" y="7"/><ellipse cx="171.75" cy="27.0938" fill="#ADD1B2" rx="11" ry="11" style="stroke:#A80036;stroke-width:1.0;"/><path d="M174.5156,22.9688 Q174.6719,22.75 174.8594,22.6406 Q175.0469,22.5313 175.2656,22.5313 Q175.6406,22.5313 175.875,22.7969 Q176.1094,23.0469 176.1094,23.6563 L176.1094,25.1094 Q176.1094,25.7188 175.875,25.9844 Q175.6406,26.25 175.2656,26.25 Q174.9219,26.25 174.7188,26.0469 Q174.5156,25.8594 174.4063,25.3438 Q174.3594,24.9844 174.1719,24.7969 Q173.8438,24.4219 173.2344,24.2031 Q172.625,23.9844 172,23.9844 Q171.2344,23.9844 170.5938,24.3125 Q169.9688,24.6406 169.4688,25.3906 Q168.9844,26.1406 168.9844,27.1719 L168.9844,28.2656 Q168.9844,29.5 169.875,30.3281 Q170.7656,31.1406 172.3594,31.1406 Q173.2969,31.1406 173.9531,30.8906 Q174.3438,30.7344 174.7656,30.2969 Q175.0313,30.0313 175.1719,29.9531 Q175.3281,29.875 175.5313,29.875 Q175.8594,29.875 176.1094,30.1406 Q176.375,30.3906 176.375,30.7344 Q176.375,31.0781 176.0313,31.4844 Q175.5313,32.0625 174.7344,32.3906 Q173.6563,32.8438 172.3594,32.8438 Q170.8438,32.8438 169.6406,32.2188 Q168.6563,31.7188 167.9688,30.6563 Q167.2813,29.5781 167.2813,28.2969 L167.2813,27.1406 Q167.2813,25.8125 167.8906,24.6719 Q168.5156,23.5156 169.6094,22.9063 Q170.7031,22.2813 171.9375,22.2813 Q172.6719,22.2813 173.3125,22.4531 Q173.9688,22.6094 174.5156,22.9688 Z " fill="#000000"/><text fill="#000000" font-family="sans-serif" font-size="14" lengthAdjust="spacing" textLength="125" x="192.25" y="26.5332">commandFunctions</text><text fill="#000000" font-family="sans-serif" font-size="10" lengthAdjust="spacing" textLength="88" x="210.75" y="39.9902">sdm.gcms.modules</text><line style="stroke:#A80036;stroke-width:1.5;" x1="8" x2="469" y1="47.1875" y2="47.1875"/><ellipse cx="18" cy="58.1875" fill="#84BE84" rx="3" ry="3" style="stroke:#038048;stroke-width:1.0;"/><text fill="#000000" font-family="sans-serif" font-size="11" lengthAdjust="spacing" text-decoration="underline" textLength="407" x="27" y="62.6064">doCommand(String, Map&lt;String, String&gt;, Command, Collection&lt;Part&gt;): StringBuilder</text><ellipse cx="18" cy="72.0234" fill="#84BE84" rx="3" ry="3" style="stroke:#038048;stroke-width:1.0;"/><text fill="#000000" font-family="sans-serif" font-size="11" lengthAdjust="spacing" text-decoration="underline" textLength="129" x="27" y="76.4424">command1(): StringBuilder</text><ellipse cx="18" cy="85.8594" fill="#84BE84" rx="3" ry="3" style="stroke:#038048;stroke-width:1.0;"/><text fill="#000000" font-family="sans-serif" font-size="11" lengthAdjust="spacing" text-decoration="underline" textLength="368" x="27" y="90.2783">doWorkflow(Map&lt;String, String&gt;, Command, Collection&lt;Part&gt;): StringBuilder</text><ellipse cx="18" cy="99.6953" fill="#84BE84" rx="3" ry="3" style="stroke:#038048;stroke-width:1.0;"/><text fill="#000000" font-family="sans-serif" font-size="11" lengthAdjust="spacing" text-decoration="underline" textLength="415" x="27" y="104.1143">command_sendEmail(Map&lt;String, String&gt;, Command, Collection&lt;Part&gt;): StringBuilder</text><ellipse cx="18" cy="113.5313" fill="#84BE84" rx="3" ry="3" style="stroke:#038048;stroke-width:1.0;"/><text fill="#000000" font-family="sans-serif" font-size="11" lengthAdjust="spacing" text-decoration="underline" textLength="331" x="27" y="117.9502">command_doBacklog(Map&lt;String, String&gt;, Command): StringBuilder</text><ellipse cx="18" cy="127.3672" fill="#84BE84" rx="3" ry="3" style="stroke:#038048;stroke-width:1.0;"/><text fill="#000000" font-family="sans-serif" font-size="11" lengthAdjust="spacing" text-decoration="underline" textLength="413" x="27" y="131.7861">command_doGetTableFromDocument(Map&lt;String, String&gt;, Command): StringBuilder</text><ellipse cx="18" cy="141.2031" fill="#84BE84" rx="3" ry="3" style="stroke:#038048;stroke-width:1.0;"/><text fill="#000000" font-family="sans-serif" font-size="11" lengthAdjust="spacing" text-decoration="underline" textLength="356" x="27" y="145.6221">command_doAPICall(Map&lt;String, String&gt;, Collection&lt;Part&gt;): StringBuilder</text><ellipse cx="18" cy="155.0391" fill="#84BE84" rx="3" ry="3" style="stroke:#038048;stroke-width:1.0;"/><text fill="#000000" font-family="sans-serif" font-size="11" lengthAdjust="spacing" text-decoration="underline" textLength="297" x="27" y="159.458">command_doCheckPlugin(Map&lt;String, String&gt;): StringBuilder</text><ellipse cx="18" cy="168.875" fill="#84BE84" rx="3" ry="3" style="stroke:#038048;stroke-width:1.0;"/><text fill="#000000" font-family="sans-serif" font-size="11" lengthAdjust="spacing" text-decoration="underline" textLength="394" x="27" y="173.2939">command_doActionManager(Map&lt;String, String&gt;, Collection&lt;Part&gt;): StringBuilder</text><ellipse cx="18" cy="182.7109" fill="#84BE84" rx="3" ry="3" style="stroke:#038048;stroke-width:1.0;"/><text fill="#000000" font-family="sans-serif" font-size="11" lengthAdjust="spacing" text-decoration="underline" textLength="437" x="27" y="187.1299">command_TableStructure(Map&lt;String, String&gt;, Command, Collection&lt;Part&gt;): StringBuilder</text><ellipse cx="18" cy="196.5469" fill="#84BE84" rx="3" ry="3" style="stroke:#038048;stroke-width:1.0;"/><text fill="#000000" font-family="sans-serif" font-size="11" lengthAdjust="spacing" text-decoration="underline" textLength="368" x="27" y="200.9658">command_doGetTableConfig(Map&lt;String, String&gt;, Command): StringBuilder</text><ellipse cx="18" cy="210.3828" fill="#84BE84" rx="3" ry="3" style="stroke:#038048;stroke-width:1.0;"/><text fill="#000000" font-family="sans-serif" font-size="11" lengthAdjust="spacing" text-decoration="underline" textLength="394" x="27" y="214.8018">command_doQueryByName(Map&lt;String, String&gt;, Collection&lt;Part&gt;): StringBuilder</text></a><text fill="#888888" font-family="sans-serif" font-size="10" lengthAdjust="spacing" textLength="179" x="149" y="238.5996">UMLDoclet 2.0.14, PlantUML 1.2021.9</text><!--MD5=[92ab6dc323dd65b1fd7b6c7d0522f882]
@startuml
    set namespaceSeparator none
    hide empty fields
    hide empty methods

    class "<size:14>commandFunctions\n<size:10>sdm.gcms.modules" as sdm.gcms.modules.commandFunctions [[commandFunctions.html]] {
        {static} +doCommand(String, Map<String, String>, Command, Collection<Part>): StringBuilder
        {static} +command1(): StringBuilder
        {static} +doWorkflow(Map<String, String>, Command, Collection<Part>): StringBuilder
        {static} +command_sendEmail(Map<String, String>, Command, Collection<Part>): StringBuilder
        {static} +command_doBacklog(Map<String, String>, Command): StringBuilder
        {static} +command_doGetTableFromDocument(Map<String, String>, Command): StringBuilder
        {static} +command_doAPICall(Map<String, String>, Collection<Part>): StringBuilder
        {static} +command_doCheckPlugin(Map<String, String>): StringBuilder
        {static} +command_doActionManager(Map<String, String>, Collection<Part>): StringBuilder
        {static} +command_TableStructure(Map<String, String>, Command, Collection<Part>): StringBuilder
        {static} +command_doGetTableConfig(Map<String, String>, Command): StringBuilder
        {static} +command_doQueryByName(Map<String, String>, Collection<Part>): StringBuilder
    }

    center footer UMLDoclet 2.0.14, PlantUML 1.2021.9
@enduml

PlantUML version 1.2021.9(Sun Jul 25 12:13:56 CEST 2021)
(APACHE source distribution)
Java Runtime: Java(TM) SE Runtime Environment
JVM: Java HotSpot(TM) 64-Bit Server VM
Default Encoding: Cp1252
Language: nl
Country: BE
--></g></svg>