<?xml version="1.0" encoding="UTF-8" standalone="no"?><svg xmlns="http://www.w3.org/2000/svg" xmlns:xlink="http://www.w3.org/1999/xlink" contentScriptType="application/ecmascript" contentStyleType="text/css" height="177px" preserveAspectRatio="none" style="width:566px;height:177px;background:#FFFFFF;" version="1.1" viewBox="0 0 566 177" width="566px" zoomAndPan="magnify"><defs><filter height="300%" id="fj6txij4bk9a7" width="300%" x="-1" y="-1"><feGaussianBlur result="blurOut" stdDeviation="2.0"/><feColorMatrix in="blurOut" result="blurOut2" type="matrix" values="0 0 0 0 0 0 0 0 0 0 0 0 0 0 0 0 0 0 .4 0"/><feOffset dx="4.0" dy="4.0" in="blurOut2" result="blurOut3"/><feBlend in="SourceGraphic" in2="blurOut3" mode="normal"/></filter></defs><g><!--MD5=[ffe064bf913a31a7bfb8a293e455cdde]
class sdm.gcms.database.objects.load.LoadObjects--><a href="LoadObjects.html" target="_top" title="LoadObjects.html" xlink:actuate="onRequest" xlink:href="LoadObjects.html" xlink:show="new" xlink:title="LoadObjects.html" xlink:type="simple"><rect codeLine="5" fill="#FEFECE" filter="url(#fj6txij4bk9a7)" height="145.0391" id="sdm.gcms.database.objects.load.LoadObjects" style="stroke:#A80036;stroke-width:1.5;" width="545" x="7" y="7"/><ellipse cx="199.25" cy="27.0938" fill="#ADD1B2" rx="11" ry="11" style="stroke:#A80036;stroke-width:1.0;"/><path d="M202.0156,22.9688 Q202.1719,22.75 202.3594,22.6406 Q202.5469,22.5313 202.7656,22.5313 Q203.1406,22.5313 203.375,22.7969 Q203.6094,23.0469 203.6094,23.6563 L203.6094,25.1094 Q203.6094,25.7188 203.375,25.9844 Q203.1406,26.25 202.7656,26.25 Q202.4219,26.25 202.2188,26.0469 Q202.0156,25.8594 201.9063,25.3438 Q201.8594,24.9844 201.6719,24.7969 Q201.3438,24.4219 200.7344,24.2031 Q200.125,23.9844 199.5,23.9844 Q198.7344,23.9844 198.0938,24.3125 Q197.4688,24.6406 196.9688,25.3906 Q196.4844,26.1406 196.4844,27.1719 L196.4844,28.2656 Q196.4844,29.5 197.375,30.3281 Q198.2656,31.1406 199.8594,31.1406 Q200.7969,31.1406 201.4531,30.8906 Q201.8438,30.7344 202.2656,30.2969 Q202.5313,30.0313 202.6719,29.9531 Q202.8281,29.875 203.0313,29.875 Q203.3594,29.875 203.6094,30.1406 Q203.875,30.3906 203.875,30.7344 Q203.875,31.0781 203.5313,31.4844 Q203.0313,32.0625 202.2344,32.3906 Q201.1563,32.8438 199.8594,32.8438 Q198.3438,32.8438 197.1406,32.2188 Q196.1563,31.7188 195.4688,30.6563 Q194.7813,29.5781 194.7813,28.2969 L194.7813,27.1406 Q194.7813,25.8125 195.3906,24.6719 Q196.0156,23.5156 197.1094,22.9063 Q198.2031,22.2813 199.4375,22.2813 Q200.1719,22.2813 200.8125,22.4531 Q201.4688,22.6094 202.0156,22.9688 Z " fill="#000000"/><text fill="#000000" font-family="sans-serif" font-size="14" lengthAdjust="spacing" textLength="80" x="255.75" y="26.5332">LoadObjects</text><text fill="#000000" font-family="sans-serif" font-size="10" lengthAdjust="spacing" textLength="152" x="219.75" y="39.9902">sdm.gcms.database.objects.load</text><line style="stroke:#A80036;stroke-width:1.5;" x1="8" x2="551" y1="47.1875" y2="47.1875"/><ellipse cx="18" cy="58.1875" fill="#84BE84" rx="3" ry="3" style="stroke:#038048;stroke-width:1.0;"/><text fill="#000000" font-family="sans-serif" font-size="11" lengthAdjust="spacing" text-decoration="underline" textLength="341" x="27" y="62.6064">loadObjects(String, MongoConfigurations, Bson, String[]): StringBuilder</text><ellipse cx="18" cy="72.0234" fill="#84BE84" rx="3" ry="3" style="stroke:#038048;stroke-width:1.0;"/><text fill="#000000" font-family="sans-serif" font-size="11" lengthAdjust="spacing" text-decoration="underline" textLength="347" x="27" y="76.4424">structureload(String, MongoConfigurations, Bson, String[]): StringBuilder</text><ellipse cx="18" cy="85.8594" fill="#84BE84" rx="3" ry="3" style="stroke:#038048;stroke-width:1.0;"/><text fill="#000000" font-family="sans-serif" font-size="11" lengthAdjust="spacing" text-decoration="underline" textLength="441" x="27" y="90.2783">dataload(String, MongoConfigurations, Map&lt;String, String&gt;, BasicDBObject): GetResponse</text><ellipse cx="18" cy="99.6953" fill="#84BE84" rx="3" ry="3" style="stroke:#038048;stroke-width:1.0;"/><text fill="#000000" font-family="sans-serif" font-size="11" lengthAdjust="spacing" text-decoration="underline" textLength="203" x="27" y="104.1143">createFilterObject(String): BasicDBObject</text><ellipse cx="18" cy="113.5313" fill="#84BE84" rx="3" ry="3" style="stroke:#038048;stroke-width:1.0;"/><text fill="#000000" font-family="sans-serif" font-size="11" lengthAdjust="spacing" text-decoration="underline" textLength="519" x="27" y="117.9502">getObjects(String, MongoConfigurations, String, Bson, String[], SerializableClass, List&lt;String&gt;): ObjectNode</text><ellipse cx="18" cy="127.3672" fill="#84BE84" rx="3" ry="3" style="stroke:#038048;stroke-width:1.0;"/><text fill="#000000" font-family="sans-serif" font-size="11" lengthAdjust="spacing" text-decoration="underline" textLength="390" x="27" y="131.7861">getObjectsList(String, MongoConfigurations, List&lt;String&gt;): ArrayList&lt;Document&gt;</text><ellipse cx="18" cy="141.2031" fill="#84BE84" rx="3" ry="3" style="stroke:#038048;stroke-width:1.0;"/><text fill="#000000" font-family="sans-serif" font-size="11" lengthAdjust="spacing" text-decoration="underline" textLength="404" x="27" y="145.6221">parseAsPage(String, MongoConfigurations, Boolean, GetResponse): GetResponse</text></a><text fill="#888888" font-family="sans-serif" font-size="10" lengthAdjust="spacing" textLength="179" x="190" y="169.4199">UMLDoclet 2.0.14, PlantUML 1.2021.9</text><!--MD5=[b0aa7439de06b922031069b76f007bb3]
@startuml
    set namespaceSeparator none
    hide empty fields
    hide empty methods

    class "<size:14>LoadObjects\n<size:10>sdm.gcms.database.objects.load" as sdm.gcms.database.objects.load.LoadObjects [[LoadObjects.html]] {
        {static} +loadObjects(String, MongoConfigurations, Bson, String[]): StringBuilder
        {static} +structureload(String, MongoConfigurations, Bson, String[]): StringBuilder
        {static} +dataload(String, MongoConfigurations, Map<String, String>, BasicDBObject): GetResponse
        {static} +createFilterObject(String): BasicDBObject
        {static} +getObjects(String, MongoConfigurations, String, Bson, String[], SerializableClass, List<String>): ObjectNode
        {static} +getObjectsList(String, MongoConfigurations, List<String>): ArrayList<Document>
        {static} +parseAsPage(String, MongoConfigurations, Boolean, GetResponse): GetResponse
    }

    center footer UMLDoclet 2.0.14, PlantUML 1.2021.9
@enduml

PlantUML version 1.2021.9(Sun Jul 25 12:13:56 CEST 2021)
(APACHE source distribution)
Java Runtime: Java(TM) SE Runtime Environment
JVM: Java HotSpot(TM) 64-Bit Server VM
Default Encoding: Cp1252
Language: nl
Country: BE
--></g></svg>