<?xml version="1.0" encoding="UTF-8" standalone="no"?><svg xmlns="http://www.w3.org/2000/svg" xmlns:xlink="http://www.w3.org/1999/xlink" contentScriptType="application/ecmascript" contentStyleType="text/css" height="150px" preserveAspectRatio="none" style="width:353px;height:150px;background:#FFFFFF;" version="1.1" viewBox="0 0 353 150" width="353px" zoomAndPan="magnify"><defs><filter height="300%" id="fryyiucidnwp3" width="300%" x="-1" y="-1"><feGaussianBlur result="blurOut" stdDeviation="2.0"/><feColorMatrix in="blurOut" result="blurOut2" type="matrix" values="0 0 0 0 0 0 0 0 0 0 0 0 0 0 0 0 0 0 .4 0"/><feOffset dx="4.0" dy="4.0" in="blurOut2" result="blurOut3"/><feBlend in="SourceGraphic" in2="blurOut3" mode="normal"/></filter></defs><g><!--MD5=[78a3b6e0cd18872bef93a5de3be884b5]
class sdm.gcms.servlet.ActionManager--><a href="ActionManager.html" target="_top" title="ActionManager.html" xlink:actuate="onRequest" xlink:href="ActionManager.html" xlink:show="new" xlink:title="ActionManager.html" xlink:type="simple"><rect codeLine="5" fill="#FEFECE" filter="url(#fryyiucidnwp3)" height="117.3672" id="sdm.gcms.servlet.ActionManager" style="stroke:#A80036;stroke-width:1.5;" width="332" x="7" y="7"/><ellipse cx="120.75" cy="27.0938" fill="#ADD1B2" rx="11" ry="11" style="stroke:#A80036;stroke-width:1.0;"/><path d="M123.5156,22.9688 Q123.6719,22.75 123.8594,22.6406 Q124.0469,22.5313 124.2656,22.5313 Q124.6406,22.5313 124.875,22.7969 Q125.1094,23.0469 125.1094,23.6563 L125.1094,25.1094 Q125.1094,25.7188 124.875,25.9844 Q124.6406,26.25 124.2656,26.25 Q123.9219,26.25 123.7188,26.0469 Q123.5156,25.8594 123.4063,25.3438 Q123.3594,24.9844 123.1719,24.7969 Q122.8438,24.4219 122.2344,24.2031 Q121.625,23.9844 121,23.9844 Q120.2344,23.9844 119.5938,24.3125 Q118.9688,24.6406 118.4688,25.3906 Q117.9844,26.1406 117.9844,27.1719 L117.9844,28.2656 Q117.9844,29.5 118.875,30.3281 Q119.7656,31.1406 121.3594,31.1406 Q122.2969,31.1406 122.9531,30.8906 Q123.3438,30.7344 123.7656,30.2969 Q124.0313,30.0313 124.1719,29.9531 Q124.3281,29.875 124.5313,29.875 Q124.8594,29.875 125.1094,30.1406 Q125.375,30.3906 125.375,30.7344 Q125.375,31.0781 125.0313,31.4844 Q124.5313,32.0625 123.7344,32.3906 Q122.6563,32.8438 121.3594,32.8438 Q119.8438,32.8438 118.6406,32.2188 Q117.6563,31.7188 116.9688,30.6563 Q116.2813,29.5781 116.2813,28.2969 L116.2813,27.1406 Q116.2813,25.8125 116.8906,24.6719 Q117.5156,23.5156 118.6094,22.9063 Q119.7031,22.2813 120.9375,22.2813 Q121.6719,22.2813 122.3125,22.4531 Q122.9688,22.6094 123.5156,22.9688 Z " fill="#000000"/><text fill="#000000" font-family="sans-serif" font-size="14" lengthAdjust="spacing" textLength="96" x="141.25" y="26.5332">ActionManager</text><text fill="#000000" font-family="sans-serif" font-size="10" lengthAdjust="spacing" textLength="79" x="149.75" y="39.9902">sdm.gcms.servlet</text><line style="stroke:#A80036;stroke-width:1.5;" x1="8" x2="338" y1="47.1875" y2="47.1875"/><ellipse cx="18" cy="58.1875" fill="#84BE84" rx="3" ry="3" style="stroke:#038048;stroke-width:1.0;"/><text fill="#000000" font-family="sans-serif" font-size="11" lengthAdjust="spacing" textLength="255" x="27" y="62.6064">ActionManager(Map&lt;String, String&gt;, String, Boolean)</text><ellipse cx="18" cy="72.0234" fill="#84BE84" rx="3" ry="3" style="stroke:#038048;stroke-width:1.0;"/><text fill="#000000" font-family="sans-serif" font-size="11" lengthAdjust="spacing" textLength="306" x="27" y="76.4424">ActionManager(Map&lt;String, String&gt;, Collection&lt;Part&gt;, Boolean)</text><ellipse cx="18" cy="85.8594" fill="#84BE84" rx="3" ry="3" style="stroke:#038048;stroke-width:1.0;"/><text fill="#000000" font-family="sans-serif" font-size="11" lengthAdjust="spacing" textLength="91" x="27" y="90.2783">getCookie(): String</text><ellipse cx="18" cy="99.6953" fill="#84BE84" rx="3" ry="3" style="stroke:#038048;stroke-width:1.0;"/><text fill="#000000" font-family="sans-serif" font-size="11" lengthAdjust="spacing" textLength="95" x="27" y="104.1143">getAction(): Actions</text><ellipse cx="18" cy="113.5313" fill="#84BE84" rx="3" ry="3" style="stroke:#038048;stroke-width:1.0;"/><text fill="#000000" font-family="sans-serif" font-size="11" lengthAdjust="spacing" textLength="116" x="27" y="117.9502">startAction(): Response</text></a><text fill="#888888" font-family="sans-serif" font-size="10" lengthAdjust="spacing" textLength="179" x="83.5" y="141.748">UMLDoclet 2.0.14, PlantUML 1.2021.9</text><!--MD5=[abaf69bbb89d9f65e2506458198c3514]
@startuml
    set namespaceSeparator none
    hide empty fields
    hide empty methods

    class "<size:14>ActionManager\n<size:10>sdm.gcms.servlet" as sdm.gcms.servlet.ActionManager [[ActionManager.html]] {
        +ActionManager(Map<String, String>, String, Boolean)
        +ActionManager(Map<String, String>, Collection<Part>, Boolean)
        +getCookie(): String
        +getAction(): Actions
        +startAction(): Response
    }

    center footer UMLDoclet 2.0.14, PlantUML 1.2021.9
@enduml

PlantUML version 1.2021.9(Sun Jul 25 12:13:56 CEST 2021)
(APACHE source distribution)
Java Runtime: Java(TM) SE Runtime Environment
JVM: Java HotSpot(TM) 64-Bit Server VM
Default Encoding: Cp1252
Language: nl
Country: BE
--></g></svg>